<?xml version="1.0" standalone="no"?>
<!DOCTYPE svg PUBLIC "-//W3C//DTD SVG 20010904//EN"
 "http://www.w3.org/TR/2001/REC-SVG-20010904/DTD/svg10.dtd">
<svg version="1.0" xmlns="http://www.w3.org/2000/svg"
 width="2880.000000pt" height="1536.000000pt" viewBox="0 0 2880.000000 1536.000000"
 preserveAspectRatio="xMidYMid meet">

<g transform="translate(0.000000,1536.000000) scale(0.100000,-0.100000)"
fill="#000000" stroke="none">
<path d="M16017 12162 c-53 -58 28 -137 83 -82 24 24 25 48 4 78 -19 27 -64
29 -87 4z"/>
<path d="M8720 11860 l0 -300 45 0 45 0 0 300 0 300 -45 0 -45 0 0 -300z"/>
<path d="M13192 12116 c-207 -68 -269 -338 -110 -481 61 -56 111 -75 199 -75
61 0 85 5 127 26 101 50 151 135 152 254 0 120 -55 211 -156 260 -54 27 -156
34 -212 16z m180 -98 c102 -58 125 -220 43 -315 -80 -94 -234 -79 -295 29 -41
73 -36 172 12 241 47 66 163 88 240 45z"/>
<path d="M17572 12116 c-207 -68 -269 -338 -110 -481 65 -59 117 -78 207 -73
88 4 137 24 189 77 44 46 72 107 79 177 l6 54 -157 0 -156 0 0 -40 0 -40 100
0 c66 0 100 -4 100 -11 0 -6 -7 -27 -17 -46 -50 -106 -216 -119 -296 -23 -65
76 -61 199 8 271 74 79 202 78 265 -2 13 -17 26 -20 74 -17 l58 3 -34 50 c-61
91 -205 137 -316 101z"/>
<path d="M7382 12106 c2 -7 37 -133 78 -280 l75 -267 54 3 55 3 33 115 c65
223 84 282 89 278 2 -3 25 -79 50 -169 69 -253 57 -229 118 -229 l52 0 79 268
c43 147 80 273 83 280 3 8 -10 12 -46 12 -59 0 -50 18 -111 -226 -22 -88 -44
-171 -49 -184 -7 -18 -20 20 -61 181 -28 112 -54 210 -56 217 -3 7 -24 12 -58
12 l-53 0 -59 -215 c-32 -119 -61 -212 -65 -208 -4 4 -26 85 -49 178 -68 277
-54 245 -112 245 -38 0 -50 -3 -47 -14z"/>
<path d="M11470 12066 c0 -52 -1 -55 -27 -58 -24 -3 -28 -8 -31 -40 -3 -34 -1
-37 25 -40 l28 -3 5 -158 c5 -154 6 -159 30 -177 28 -21 65 -30 126 -30 l44 0
0 40 c0 40 0 40 -39 40 -65 0 -71 13 -71 161 l0 129 56 0 55 0 -3 38 -3 37
-52 3 -52 3 -3 52 -3 52 -42 3 -43 3 0 -55z"/>
<path d="M12625 12103 c-7 -19 -143 -398 -176 -491 l-18 -53 51 3 50 3 20 53
20 53 115 -3 116 -3 20 -52 20 -53 49 0 c46 0 49 2 43 21 -4 12 -49 137 -99
278 l-92 256 -56 3 c-46 2 -57 0 -63 -15z m108 -234 c21 -58 37 -108 37 -112
0 -4 -39 -7 -86 -7 -65 0 -85 3 -81 13 2 6 21 61 42 120 21 59 41 104 45 100
4 -4 23 -56 43 -114z"/>
<path d="M13620 12080 l0 -40 75 0 75 0 0 -241 0 -240 48 3 47 3 3 238 2 237
70 0 70 0 0 40 0 40 -195 0 -195 0 0 -40z"/>
<path d="M14310 11840 l0 -280 50 0 50 0 0 280 0 280 -50 0 -50 0 0 -280z"/>
<path d="M20397 12114 c-4 -4 -7 -29 -7 -56 0 -45 -2 -48 -25 -48 -22 0 -25
-4 -25 -40 0 -36 3 -40 25 -40 l25 0 0 -137 c0 -166 12 -200 75 -221 22 -7 60
-12 85 -10 44 3 45 4 48 41 l3 37 -43 0 c-24 0 -49 5 -56 12 -8 8 -12 55 -12
145 l0 133 56 0 55 0 -3 38 -3 37 -52 3 -52 3 -3 52 -3 52 -40 3 c-23 2 -44 0
-48 -4z"/>
<path d="M8320 11994 c-77 -33 -130 -118 -130 -209 0 -90 56 -181 130 -213 48
-20 148 -19 194 3 42 20 96 81 96 107 0 15 -9 18 -44 18 -36 0 -50 -6 -74 -30
-26 -25 -38 -30 -79 -30 -58 0 -90 19 -109 66 -8 18 -14 36 -14 39 0 3 77 5
170 5 l170 0 0 33 c0 93 -53 181 -127 212 -45 19 -138 19 -183 -1z m150 -79
c31 -16 65 -69 55 -85 -8 -12 -222 -13 -229 -2 -9 14 28 73 54 88 33 18 84 17
120 -1z"/>
<path d="M9009 11987 c-24 -13 -57 -43 -74 -66 -25 -36 -30 -54 -33 -116 -2
-41 1 -89 8 -110 16 -49 64 -102 109 -121 49 -22 149 -21 195 1 39 18 91 74
99 106 5 17 -1 19 -43 19 -40 0 -53 -5 -78 -30 -25 -25 -39 -30 -77 -30 -40 0
-52 5 -80 33 -83 83 -36 257 70 257 44 0 81 -17 100 -47 13 -19 24 -23 65 -23
28 0 50 2 50 5 0 14 -40 82 -57 97 -58 52 -179 64 -254 25z"/>
<path d="M9505 11991 c-83 -38 -125 -111 -125 -213 0 -46 7 -75 24 -108 76
-150 312 -150 396 0 49 90 26 232 -47 290 -67 53 -173 66 -248 31z m154 -79
c120 -65 77 -272 -57 -272 -113 0 -172 149 -95 241 44 52 94 62 152 31z"/>
<path d="M9920 11785 l0 -225 44 0 44 0 4 148 c4 168 13 194 78 213 50 15 89
2 118 -41 20 -30 22 -44 22 -176 l0 -144 44 0 43 0 5 143 c6 160 14 188 65
212 47 23 95 13 127 -26 25 -30 26 -34 26 -180 l0 -149 51 0 51 0 -4 163 c-3
148 -6 166 -28 204 -53 95 -201 113 -282 35 l-28 -26 -27 26 c-55 52 -148 64
-218 28 -22 -11 -41 -20 -42 -20 -2 0 -3 9 -3 20 0 17 -7 20 -45 20 l-45 0 0
-225z"/>
<path d="M10850 11997 c-84 -40 -130 -113 -130 -207 0 -145 84 -232 224 -232
77 0 135 27 171 79 36 54 33 63 -21 63 -38 0 -51 -5 -74 -30 -24 -26 -35 -30
-79 -30 -41 0 -56 5 -80 28 -17 15 -33 39 -37 55 l-6 27 166 0 c185 0 170 -7
166 73 -3 78 -49 141 -122 171 -43 18 -142 20 -178 3z m155 -87 c31 -19 60
-71 48 -84 -11 -11 -233 -7 -233 4 0 6 7 24 15 40 30 58 110 77 170 40z"/>
<path d="M11844 11991 c-189 -86 -154 -392 49 -430 149 -28 277 72 277 217 0
99 -46 176 -125 213 -53 25 -147 25 -201 0z m157 -76 c44 -23 69 -71 69 -131
0 -85 -53 -144 -130 -143 -75 0 -120 52 -120 139 0 67 14 97 59 127 40 27 80
29 122 8z"/>
<path d="M14520 11785 l0 -225 50 0 50 0 0 145 c0 86 5 154 11 169 7 14 27 32
46 41 47 23 95 13 127 -26 25 -30 26 -34 26 -180 l0 -149 50 0 50 0 0 135 c0
158 -11 221 -47 259 -53 57 -155 74 -225 37 -36 -20 -36 -20 -41 0 -4 15 -14
19 -51 19 l-46 0 0 -225z"/>
<path d="M14992 11997 c2 -7 39 -108 83 -225 l80 -212 57 0 56 0 28 73 c15 39
51 134 81 210 29 76 53 145 53 153 0 12 -11 14 -47 12 l-48 -3 -60 -172 c-40
-115 -62 -168 -68 -158 -4 8 -27 72 -52 142 -24 70 -49 143 -55 161 -11 30
-15 32 -62 32 -36 0 -49 -4 -46 -13z"/>
<path d="M15590 11987 c-124 -63 -157 -254 -62 -359 45 -50 92 -70 167 -70 71
0 121 19 164 63 43 43 61 90 61 164 0 136 -89 225 -224 225 -43 0 -74 -7 -106
-23z m158 -71 c40 -21 63 -50 72 -93 21 -92 -31 -172 -118 -181 -46 -4 -53 -2
-87 30 -33 30 -39 42 -43 89 -5 69 16 122 60 149 39 23 78 26 116 6z"/>
<path d="M16010 11786 l0 -226 50 0 50 0 -2 223 -3 222 -47 3 -48 3 0 -225z"/>
<path d="M16315 11991 c-79 -37 -119 -107 -118 -211 2 -142 81 -222 218 -222
76 -1 134 27 170 79 36 54 33 63 -21 63 -38 0 -51 -5 -74 -30 -23 -25 -36 -30
-74 -30 -59 0 -90 20 -110 71 -43 108 11 219 106 219 32 0 47 -7 75 -35 29
-29 42 -35 79 -35 36 0 44 3 44 18 0 34 -56 98 -99 116 -55 21 -146 20 -196
-3z"/>
<path d="M16795 11991 c-79 -36 -118 -107 -118 -211 0 -68 17 -114 57 -158 68
-75 212 -88 293 -26 32 24 73 79 73 97 0 4 -21 7 -46 7 -37 0 -53 -6 -81 -30
-25 -23 -43 -30 -74 -30 -65 0 -118 39 -119 88 0 22 0 22 165 22 l165 0 0 44
c0 130 -87 216 -217 216 -35 0 -74 -8 -98 -19z m155 -76 c33 -17 60 -52 60
-77 0 -16 -11 -18 -115 -18 -115 0 -115 0 -115 24 0 15 13 36 35 55 40 35 87
41 135 16z"/>
<path d="M18115 11991 c-79 -36 -118 -107 -118 -211 0 -68 17 -114 57 -158 68
-75 212 -88 293 -26 32 24 73 79 73 97 0 4 -21 7 -46 7 -37 0 -53 -6 -81 -30
-25 -23 -43 -30 -74 -30 -65 0 -118 39 -119 88 0 22 0 22 165 22 l165 0 0 44
c0 130 -87 216 -217 216 -35 0 -74 -8 -98 -19z m155 -76 c33 -17 60 -52 60
-77 0 -16 -11 -18 -115 -18 -115 0 -115 0 -115 24 0 15 13 36 35 55 40 35 87
41 135 16z"/>
<path d="M18520 11785 l0 -225 45 0 45 0 0 135 c0 154 11 195 59 219 40 21 69
20 108 -4 43 -26 53 -67 53 -222 l0 -128 45 0 45 0 0 160 c0 140 -3 166 -20
200 -49 96 -164 117 -281 53 -4 -2 -9 5 -12 17 -4 16 -13 20 -46 20 l-41 0 0
-225z"/>
<path d="M19120 11986 c-26 -13 -58 -41 -75 -65 -28 -40 -30 -48 -30 -136 0
-88 2 -96 30 -136 17 -24 46 -52 64 -63 71 -41 182 -38 248 7 27 19 73 82 73
101 0 3 -22 6 -49 6 -37 0 -53 -5 -63 -18 -20 -28 -52 -42 -98 -42 -34 0 -48
6 -76 34 -19 19 -34 43 -34 55 0 20 4 21 165 21 l165 0 0 53 c0 58 -25 121
-61 154 -62 57 -179 70 -259 29z m184 -90 c20 -18 36 -43 36 -55 0 -20 -4 -21
-115 -21 -111 0 -115 1 -115 21 0 12 16 37 36 55 29 28 43 34 79 34 36 0 50
-6 79 -34z"/>
<path d="M19530 11785 l0 -225 45 0 45 0 0 123 c0 181 20 227 97 227 33 0 33
0 33 51 l0 52 -36 -6 c-20 -4 -47 -15 -59 -27 -28 -26 -35 -25 -35 5 0 23 -4
25 -45 25 l-45 0 0 -225z"/>
<path d="M19940 11999 c-83 -33 -130 -110 -130 -214 0 -74 14 -114 55 -163 61
-73 187 -87 266 -32 35 26 39 25 39 -5 0 -23 4 -25 45 -25 l45 0 0 225 0 225
-45 0 c-44 0 -45 -1 -45 -32 0 -29 -1 -30 -18 -15 -46 42 -152 60 -212 36z
m157 -89 c48 -29 66 -72 61 -142 -4 -50 -9 -64 -36 -91 -29 -28 -39 -32 -87
-32 -48 0 -59 4 -86 31 -115 115 12 317 148 234z"/>
<path d="M20775 11991 c-83 -38 -125 -111 -125 -213 0 -46 7 -75 24 -108 76
-150 312 -150 396 0 49 90 26 232 -47 290 -67 53 -173 66 -248 31z m154 -79
c120 -65 77 -272 -57 -272 -113 0 -172 149 -95 241 44 52 94 62 152 31z"/>
<path d="M21190 11786 l0 -226 44 0 45 0 3 151 3 151 28 24 c18 15 41 24 63
24 l34 0 0 51 0 52 -35 -6 c-19 -3 -48 -15 -64 -27 l-30 -20 -3 22 c-2 19 -10
24 -45 26 l-43 3 0 -225z"/>
<path d="M4875 8668 c-5 -14 -326 -1120 -343 -1181 -12 -44 -13 -44 101 -77
56 -17 81 -20 89 -12 9 9 358 1202 358 1224 0 8 -157 58 -183 58 -10 0 -20 -6
-22 -12z"/>
<path d="M24185 8640 c3 -6 -1 -7 -9 -4 -38 15 -215 -128 -285 -230 l-32 -46
-142 0 c-198 0 -192 3 -286 -179 -109 -215 -107 -221 101 -221 76 0 138 -3
138 -6 0 -4 -16 -24 -35 -45 -57 -63 -51 -87 48 -186 74 -74 87 -83 120 -83
28 0 46 8 77 36 l40 36 0 -141 c0 -128 2 -143 20 -161 11 -11 26 -20 34 -20
32 0 293 139 319 170 27 31 27 33 27 184 l0 151 61 45 c103 75 209 207 221
275 1 11 8 23 13 27 6 4 -6 8 -25 8 -26 0 -31 3 -20 10 13 9 13 10 0 10 -13 0
-13 1 0 10 11 7 6 10 -20 10 -26 0 -31 3 -20 10 13 9 13 10 0 10 -13 0 -13 1
0 10 11 7 6 10 -20 10 -26 0 -31 3 -20 10 13 9 13 10 0 10 -13 0 -13 1 0 10
11 7 6 10 -20 10 -26 0 -31 3 -20 10 13 9 13 10 0 10 -13 0 -13 1 0 10 12 8
11 10 -6 10 -17 0 -20 -5 -16 -25 12 -65 -35 -125 -100 -125 -50 0 -74 13 -93
50 -35 67 -1 138 75 158 22 5 40 6 40 1 0 -5 8 -9 18 -9 13 0 14 2 3 9 -11 7
-11 9 0 14 8 3 -2 6 -21 6 -26 1 -31 4 -20 11 13 9 13 10 0 10 -13 0 -13 1 0
10 11 7 6 10 -20 10 -26 0 -31 3 -20 10 13 9 13 10 0 10 -13 0 -13 1 0 10 11
7 6 10 -20 10 -26 0 -31 3 -20 10 13 9 13 10 0 10 -13 0 -13 1 0 10 11 7 6 10
-20 10 -26 0 -31 3 -20 10 13 9 13 10 0 10 -13 0 -13 1 0 10 12 8 10 10 -8 10
-13 0 -20 -4 -17 -10z"/>
<path d="M13760 8500 c-7 -13 -10 -162 -8 -460 l3 -439 23 -23 23 -23 613 0
c338 0 618 4 623 8 15 16 9 127 -7 137 -9 6 -237 10 -567 10 l-553 0 0 393 c0
292 -3 396 -12 405 -7 7 -38 12 -70 12 -47 0 -59 -4 -68 -20z"/>
<path d="M24398 8443 c7 -3 16 -2 19 1 4 3 -2 6 -13 5 -11 0 -14 -3 -6 -6z"/>
<path d="M14591 8421 c-31 -31 -26 -47 31 -107 l52 -55 -97 -97 -97 -97 -102
101 c-57 56 -111 104 -121 107 -9 4 -30 2 -45 -4 -39 -15 -212 -189 -212 -214
0 -24 68 -95 91 -95 8 0 44 29 79 65 l64 65 107 -105 c144 -143 133 -144 304
25 72 72 135 130 141 130 5 0 30 -20 54 -45 45 -46 66 -53 101 -35 17 10 19
22 19 120 0 107 -1 110 -22 110 -19 0 -20 2 -8 10 13 9 13 10 0 10 -13 0 -13
1 0 10 11 7 6 10 -20 10 -26 0 -31 3 -20 10 13 9 13 10 0 10 -13 0 -13 1 0 10
11 7 6 10 -20 10 -26 0 -31 3 -20 10 13 9 13 10 0 10 -13 0 -13 1 0 10 11 7 6
10 -20 10 -23 0 -30 3 -22 9 22 13 -2 18 -105 20 -81 2 -94 0 -112 -18z"/>
<path d="M4185 8229 c-107 -100 -195 -185 -195 -190 0 -16 377 -369 394 -369
12 0 146 132 146 143 0 3 -54 53 -120 112 -66 59 -120 110 -120 114 0 3 52 51
115 106 63 55 115 106 115 114 0 15 -117 151 -131 151 -5 0 -97 -82 -204 -181z"/>
<path d="M5147 8340 c-37 -39 -67 -74 -67 -79 0 -5 53 -55 118 -111 64 -57
118 -106 120 -110 1 -4 -50 -53 -115 -110 -65 -57 -119 -107 -121 -111 -6 -16
121 -150 138 -147 20 3 383 344 388 362 2 11 -366 366 -387 374 -5 1 -38 -29
-74 -68z"/>
<path d="M3830 6765 l0 -155 30 0 29 0 3 102 3 101 68 -101 c60 -92 70 -102
97 -102 l30 0 0 155 0 155 -30 0 -29 0 -3 -102 -3 -103 -67 103 c-61 92 -70
102 -98 102 l-30 0 0 -155z"/>
<path d="M4212 6900 c-102 -63 -96 -222 12 -271 23 -10 54 -19 69 -19 73 0
141 60 153 135 8 60 -26 131 -76 157 -46 24 -116 23 -158 -2z m128 -45 c17 -9
33 -28 40 -50 28 -85 -37 -161 -117 -134 -66 22 -86 118 -34 170 33 33 67 37
111 14z"/>
<path d="M4662 6900 c-70 -43 -95 -147 -52 -218 48 -78 172 -92 237 -27 42 42
42 55 -2 55 -19 0 -35 -5 -35 -11 0 -5 -15 -16 -34 -24 -97 -41 -173 90 -97
166 35 35 77 38 114 9 14 -11 40 -20 57 -20 31 0 32 1 18 23 -43 65 -140 87
-206 47z"/>
<path d="M5015 6908 c-61 -33 -87 -76 -87 -144 0 -178 262 -210 300 -36 18 76
-12 143 -80 178 -32 17 -105 18 -133 2z m125 -65 c75 -67 14 -199 -82 -178
-70 16 -94 121 -39 176 38 38 80 39 121 2z"/>
<path d="M5282 6769 l3 -154 77 1 c92 2 142 24 170 74 37 71 13 166 -52 204
-23 14 -58 21 -117 24 l-84 5 3 -154z m147 90 c72 -25 82 -144 16 -179 -13 -7
-41 -13 -62 -14 l-38 -1 -3 89 c-2 49 -1 95 2 103 6 16 42 17 85 2z"/>
<path d="M5600 6765 l0 -155 90 0 c89 0 90 0 90 25 0 24 -3 25 -61 25 l-60 0
3 43 3 42 48 3 c39 3 47 6 47 23 0 16 -7 19 -50 19 l-50 0 0 40 0 40 60 0 c57
0 60 1 60 25 0 25 -1 25 -90 25 l-90 0 0 -155z"/>
<path d="M12370 6765 l0 -155 90 0 c89 0 90 0 90 25 0 24 -3 25 -61 25 l-60 0
3 43 3 42 48 3 c39 3 47 6 47 23 0 16 -7 19 -50 19 l-50 0 0 40 0 40 60 0 c57
0 60 1 60 25 0 25 -1 25 -90 25 l-90 0 0 -155z"/>
<path d="M12696 6912 c-6 -10 -106 -289 -106 -296 0 -3 14 -6 31 -6 24 0 32 6
40 30 11 29 13 30 74 30 62 0 64 -1 70 -30 6 -26 11 -30 40 -30 l34 0 -45 128
c-26 70 -51 139 -56 155 -8 22 -16 27 -43 27 -19 0 -36 -4 -39 -8z m74 -179
c0 -8 -15 -13 -40 -13 -22 0 -40 2 -40 4 0 3 24 75 36 106 6 15 44 -70 44 -97z"/>
<path d="M12945 6897 c-21 -17 -27 -32 -27 -61 0 -48 17 -65 89 -91 60 -21 76
-43 53 -70 -18 -21 -58 -18 -72 5 -9 13 -24 20 -45 20 -31 0 -32 -1 -21 -31
21 -61 131 -77 184 -28 17 16 24 33 24 59 0 45 -23 69 -88 91 -50 17 -69 37
-59 63 8 21 65 22 73 1 7 -17 74 -21 74 -4 0 6 -13 24 -29 40 -25 24 -38 29
-80 29 -38 0 -56 -6 -76 -23z"/>
<path d="M13170 6915 c0 -3 23 -50 50 -105 40 -80 50 -110 50 -150 0 -49 1
-50 30 -50 30 0 30 1 30 55 0 46 8 71 50 155 l50 100 -33 0 c-32 0 -36 -4 -63
-65 -16 -35 -31 -65 -34 -65 -3 0 -20 29 -38 65 -29 58 -35 65 -62 65 -16 0
-30 -2 -30 -5z"/>
<path d="M13560 6895 c0 -22 4 -25 40 -25 l40 0 0 -130 0 -130 30 0 30 0 0
130 0 130 40 0 c36 0 40 3 40 25 l0 25 -110 0 -110 0 0 -25z"/>
<path d="M13890 6901 c-51 -27 -84 -96 -76 -156 12 -75 80 -135 153 -135 45 1
111 36 133 72 27 44 27 122 0 166 -42 69 -137 93 -210 53z m141 -60 c52 -52
32 -148 -34 -170 -83 -28 -152 59 -112 142 29 63 98 76 146 28z"/>
<path d="M14340 6902 c-49 -26 -83 -93 -76 -150 8 -61 34 -99 81 -122 51 -25
88 -25 142 -1 45 21 83 78 83 126 0 25 -1 25 -85 25 -78 0 -85 -2 -85 -20 0
-17 7 -20 50 -20 43 0 50 -3 50 -20 0 -27 -42 -52 -86 -52 -54 0 -89 38 -89
98 0 39 5 50 33 75 18 16 41 29 52 29 24 0 70 -21 70 -32 0 -4 19 -8 41 -8 41
0 41 0 27 23 -42 64 -137 86 -208 49z"/>
<path d="M14612 6768 l3 -153 88 -3 87 -3 0 26 c0 24 -2 25 -61 25 l-60 0 3
43 3 42 53 3 c44 3 52 6 52 23 0 16 -7 19 -55 19 l-55 0 0 40 0 40 60 0 c57 0
60 1 60 25 0 25 -1 25 -90 25 l-91 0 3 -152z"/>
<path d="M14850 6765 l0 -155 30 0 29 0 3 103 3 102 68 -102 c61 -92 72 -103
98 -103 l29 0 0 155 0 155 -30 0 -29 0 -3 -102 -3 -103 -68 103 c-60 91 -70
102 -97 102 l-30 0 0 -155z"/>
<path d="M15170 6765 l0 -155 90 0 c89 0 90 0 90 25 0 24 -3 25 -61 25 l-60 0
3 43 3 42 48 3 c39 3 47 6 47 23 0 16 -7 19 -50 19 l-50 0 0 40 0 40 60 0 c57
0 60 1 60 25 0 25 -1 25 -90 25 l-90 0 0 -155z"/>
<path d="M15410 6764 l0 -155 28 3 c26 3 27 5 27 58 0 79 23 80 67 1 30 -55
36 -61 66 -61 17 0 32 2 32 4 0 3 -16 31 -35 63 -34 57 -34 58 -13 69 25 14
47 51 48 82 1 61 -52 92 -155 92 l-65 0 0 -156z m141 96 c22 -12 25 -52 5 -69
-8 -7 -32 -11 -53 -9 -33 3 -38 6 -41 31 -2 16 -1 35 2 43 6 16 59 19 87 4z"/>
<path d="M15775 6903 c-4 -10 -26 -72 -50 -138 -24 -66 -46 -128 -50 -137 -6
-15 -2 -18 24 -18 27 0 34 5 42 30 11 29 13 30 74 30 61 0 63 -1 74 -30 8 -24
16 -30 40 -30 17 0 31 1 31 3 0 1 -25 70 -54 152 l-54 150 -35 3 c-26 2 -36
-1 -42 -15z m80 -160 c6 -22 3 -23 -39 -23 -25 0 -46 2 -46 5 0 2 10 30 22 62
l21 58 18 -40 c9 -22 20 -50 24 -62z"/>
<path d="M15990 6895 c0 -22 4 -25 40 -25 l40 0 0 -130 0 -130 30 0 30 0 0
130 0 130 40 0 c36 0 40 3 40 25 l0 25 -110 0 -110 0 0 -25z"/>
<path d="M16260 6765 l0 -155 85 0 c84 0 85 0 85 25 0 22 -4 24 -57 27 l-58 3
0 40 0 40 53 3 c43 3 52 6 52 22 0 16 -9 19 -52 22 l-53 3 0 35 0 35 58 3 c53
3 57 5 57 27 0 25 -1 25 -85 25 l-85 0 0 -155z"/>
<path d="M21240 6766 l0 -156 30 0 30 0 0 60 c0 79 19 79 62 0 31 -56 35 -60
70 -60 l37 0 -35 60 -35 61 30 28 c41 39 43 96 5 132 -22 21 -37 24 -110 28
l-84 3 0 -156z m141 94 c21 -12 25 -50 7 -68 -7 -7 -29 -12 -50 -12 l-38 0 0
45 c0 44 1 45 31 45 17 0 39 -5 50 -10z"/>
<path d="M21520 6810 c0 -80 4 -119 15 -140 29 -55 104 -75 169 -45 52 25 60
48 64 178 l4 117 -31 0 -31 0 0 -97 c0 -118 -12 -147 -59 -151 -60 -6 -71 15
-71 140 l0 108 -30 0 -30 0 0 -110z"/>
<path d="M21830 6765 l0 -155 30 0 29 0 3 102 3 101 68 -101 c60 -92 70 -102
97 -102 l30 0 0 155 0 155 -30 0 -29 0 -3 -102 -3 -101 -68 101 c-60 92 -70
102 -97 102 l-30 0 0 -155z"/>
<path d="M22285 6814 c45 -87 55 -116 55 -155 0 -46 2 -49 25 -49 23 0 25 3
25 51 0 43 9 68 56 155 l56 104 -36 0 c-34 0 -37 -3 -65 -65 -16 -36 -32 -65
-36 -65 -3 0 -19 29 -35 65 -28 63 -31 65 -65 65 l-36 0 56 -106z"/>
<path d="M22600 6901 c-22 -11 -44 -36 -59 -64 -70 -137 72 -277 210 -207 104
54 108 208 7 270 -42 25 -112 26 -158 1z m141 -60 c68 -69 8 -196 -83 -174
-61 15 -92 86 -63 147 29 62 98 74 146 27z"/>
<path d="M22880 6810 c0 -80 4 -119 15 -140 35 -68 140 -79 198 -21 30 30 31
32 35 151 l4 120 -31 0 -31 0 0 -97 c0 -118 -12 -147 -59 -151 -60 -6 -71 15
-71 140 l0 108 -30 0 -30 0 0 -110z"/>
<path d="M23190 6766 l0 -156 30 0 30 0 0 60 c0 78 18 79 63 3 28 -49 38 -58
65 -61 18 -2 32 0 32 4 0 3 -14 31 -31 60 l-31 54 31 29 c40 37 42 87 7 128
-23 26 -31 28 -110 32 l-86 3 0 -156z m141 94 c21 -12 25 -50 7 -68 -7 -7 -29
-12 -50 -12 l-38 0 0 45 c0 44 1 45 31 45 17 0 39 -5 50 -10z"/>
<path d="M23570 6764 l0 -156 89 4 c112 5 141 21 141 78 0 27 -7 47 -20 60
l-21 21 21 26 c23 30 24 42 9 77 -15 33 -56 46 -145 46 l-74 0 0 -156z m160
87 c20 -39 -14 -67 -71 -59 -20 2 -25 10 -27 41 l-3 37 45 0 c34 0 48 -5 56
-19z m-9 -111 c21 -12 25 -50 7 -68 -7 -7 -31 -12 -55 -12 l-43 0 0 38 c0 21
3 42 7 45 10 11 62 8 84 -3z"/>
<path d="M23860 6811 c0 -60 4 -121 10 -135 27 -71 148 -87 202 -27 27 31 28
34 28 152 l0 120 -27 -3 -28 -3 -3 -109 c-1 -61 -8 -116 -14 -123 -15 -18 -73
-16 -92 3 -13 12 -16 39 -16 125 l0 109 -30 0 -30 0 0 -109z"/>
<path d="M24205 6908 c-31 -17 -45 -39 -45 -73 0 -44 17 -62 85 -88 47 -18 61
-28 63 -46 6 -42 -57 -58 -80 -21 -8 12 -24 20 -40 20 -61 0 -13 -76 54 -87
86 -13 151 46 127 115 -10 31 -29 43 -93 65 -44 15 -62 36 -53 61 8 20 60 21
77 1 15 -18 70 -20 70 -2 -2 51 -107 87 -165 55z"/>
<path d="M24430 6765 l0 -155 30 0 30 0 0 155 0 155 -30 0 -30 0 0 -155z"/>
<path d="M24552 6768 l3 -153 28 -3 27 -3 0 100 c0 56 3 101 8 101 4 0 36 -45
72 -100 56 -86 69 -100 93 -100 l27 0 0 155 0 155 -25 0 -25 0 0 -100 c0 -55
-3 -100 -7 -100 -5 0 -37 45 -73 100 -60 93 -67 100 -98 100 l-33 0 3 -152z"/>
<path d="M24880 6765 l0 -155 85 0 c84 0 85 0 85 25 0 24 -3 25 -56 25 l-55 0
3 43 3 42 48 3 c39 3 47 6 47 23 0 16 -7 19 -50 19 l-50 0 0 40 0 40 55 0 c52
0 55 1 55 25 0 25 -1 25 -85 25 l-85 0 0 -155z"/>
<path d="M25153 6910 c-28 -11 -43 -40 -43 -83 0 -41 10 -51 87 -81 60 -23 75
-44 53 -71 -18 -21 -58 -18 -72 5 -17 26 -68 28 -68 2 0 -10 12 -29 26 -43 21
-19 36 -24 81 -24 48 0 58 4 79 28 30 35 32 87 5 111 -10 9 -40 25 -66 34 -52
19 -72 40 -62 66 8 21 65 22 73 1 7 -17 74 -21 74 -4 0 6 -13 24 -29 40 -24
23 -38 29 -73 28 -24 0 -53 -4 -65 -9z"/>
<path d="M25423 6910 c-28 -11 -43 -40 -43 -83 0 -41 10 -51 87 -81 60 -23 75
-44 53 -71 -18 -21 -58 -18 -72 5 -17 26 -68 28 -68 2 0 -10 12 -29 26 -43 21
-19 36 -24 81 -24 48 0 58 4 79 28 30 35 32 87 5 111 -10 9 -40 25 -66 34 -52
19 -72 40 -62 66 8 21 65 22 73 1 7 -17 74 -21 74 -4 0 6 -13 24 -29 40 -24
23 -38 29 -73 28 -24 0 -53 -4 -65 -9z"/>
<path d="M25752 6768 l3 -153 28 -3 27 -3 0 65 0 66 50 0 c47 0 50 2 50 25 0
23 -3 25 -50 25 l-50 0 0 40 0 40 65 0 c63 0 65 1 65 25 0 25 0 25 -95 25
l-96 0 3 -152z"/>
<path d="M26068 6890 c-16 -42 -98 -272 -98 -276 0 -2 13 -4 29 -4 23 0 31 6
40 30 10 29 12 30 75 30 63 0 65 0 71 -30 6 -26 11 -30 41 -30 l34 0 -22 58
c-11 31 -25 68 -31 82 -6 14 -11 31 -13 39 -1 8 -6 17 -11 20 -4 3 -10 17 -12
31 -1 14 -7 28 -13 31 -5 3 -9 9 -9 13 4 26 -2 32 -35 32 -29 0 -38 -5 -46
-26z m79 -141 c5 -28 4 -29 -36 -29 -22 0 -41 2 -41 4 0 4 27 82 36 106 7 17
31 -30 41 -81z"/>
<path d="M26308 6803 c7 -3 16 -2 19 1 4 3 -2 6 -13 5 -11 0 -14 -3 -6 -6z"/>
<path d="M26348 6763 c7 -3 16 -2 19 1 4 3 -2 6 -13 5 -11 0 -14 -3 -6 -6z"/>
<path d="M26300 6681 c0 -10 10 -27 23 -39 23 -21 51 -27 117 -22 32 2 33 3
10 10 -24 7 -23 7 10 12 29 4 25 5 -20 8 -30 1 -59 2 -63 1 -5 -1 -6 3 -3 8 8
12 -14 29 -47 35 -21 4 -27 1 -27 -13z"/>
<path d="M9050 4635 c0 -39 14 -47 24 -12 9 35 7 47 -9 47 -10 0 -15 -11 -15
-35z"/>
<path d="M9092 4638 c4 -46 28 -49 28 -4 0 26 -4 36 -16 36 -11 0 -14 -8 -12
-32z"/>
<path d="M14280 4635 c0 -19 5 -35 10 -35 6 0 10 16 10 35 0 19 -4 35 -10 35
-5 0 -10 -16 -10 -35z"/>
<path d="M14320 4635 c0 -36 13 -47 24 -19 11 28 6 54 -9 54 -10 0 -15 -11
-15 -35z"/>
<path d="M7967 4653 c-4 -3 -7 -12 -7 -20 0 -15 26 -18 34 -4 7 11 -18 33 -27
24z"/>
<path d="M12111 4650 c-16 -9 -6 -30 15 -30 15 0 20 25 6 34 -4 2 -14 1 -21
-4z"/>
<path d="M14874 4650 c-12 -5 -24 -20 -28 -34 -3 -14 -11 -26 -16 -26 -6 0
-10 -7 -10 -15 0 -8 5 -15 10 -15 6 0 10 -32 10 -75 0 -60 3 -75 15 -75 12 0
15 15 15 75 0 68 2 75 20 75 28 0 25 28 -2 32 l-23 3 23 23 c35 35 29 50 -14
32z"/>
<path d="M17618 4653 c-10 -2 -21 -17 -25 -31 -3 -15 -13 -32 -22 -39 -14 -10
-14 -12 2 -18 14 -6 17 -20 17 -81 0 -59 3 -74 15 -74 12 0 15 15 15 75 0 60
3 75 15 75 8 0 15 7 15 15 0 8 -7 15 -15 15 -8 0 -15 7 -15 15 0 9 7 18 15 21
8 4 15 12 15 20 0 14 -3 15 -32 7z"/>
<path d="M17723 4649 c-12 -4 -25 -20 -29 -34 -3 -14 -10 -25 -15 -25 -5 0 -9
-7 -9 -15 0 -8 5 -15 10 -15 6 0 10 -32 10 -75 0 -60 3 -75 15 -75 12 0 15 15
15 75 0 68 2 75 20 75 11 0 20 7 20 15 0 9 -9 15 -21 15 -15 0 -19 4 -15 16 3
9 6 18 6 20 0 2 7 4 15 4 16 0 21 16 8 23 -5 3 -18 1 -30 -4z"/>
<path d="M20527 4653 c-4 -3 -7 -12 -7 -20 0 -15 26 -18 34 -4 7 11 -18 33
-27 24z"/>
<path d="M8160 4530 c0 -100 3 -120 15 -120 12 0 15 14 15 63 0 67 10 87 45
87 35 0 45 -20 45 -87 0 -49 3 -63 15 -63 24 0 21 141 -3 163 -22 20 -73 22
-90 5 -9 -9 -12 -3 -12 30 0 31 -4 42 -15 42 -12 0 -15 -20 -15 -120z"/>
<path d="M10530 4609 c0 -35 -2 -40 -17 -34 -10 5 -32 10 -50 13 -73 10 -114
-98 -58 -153 27 -28 82 -34 104 -12 11 10 14 10 18 0 3 -7 11 -13 19 -13 11 0
14 23 14 120 0 100 -2 120 -15 120 -11 0 -15 -11 -15 -41z m-22 -61 c7 -7 12
-28 12 -48 0 -42 -14 -60 -49 -60 -53 0 -80 62 -44 102 18 20 63 24 81 6z"/>
<path d="M18230 4530 c0 -100 3 -120 15 -120 13 0 15 20 15 120 0 100 -2 120
-15 120 -12 0 -15 -20 -15 -120z"/>
<path d="M18840 4530 c0 -100 3 -120 15 -120 13 0 15 20 15 120 0 100 -2 120
-15 120 -12 0 -15 -20 -15 -120z"/>
<path d="M20320 4530 c0 -100 3 -120 15 -120 12 0 15 14 15 63 0 67 10 87 45
87 35 0 45 -20 45 -87 0 -49 3 -63 15 -63 24 0 21 141 -3 163 -22 20 -73 22
-90 5 -9 -9 -12 -3 -12 30 0 31 -4 42 -15 42 -12 0 -15 -20 -15 -120z"/>
<path d="M20820 4530 c0 -100 3 -120 15 -120 12 0 15 14 15 63 0 67 10 87 45
87 35 0 45 -20 45 -87 0 -49 3 -63 15 -63 24 0 21 141 -3 163 -22 20 -73 22
-90 5 -9 -9 -12 -3 -12 30 0 31 -4 42 -15 42 -12 0 -15 -20 -15 -120z"/>
<path d="M7633 4627 c3 -8 18 -60 33 -116 21 -79 31 -101 44 -101 14 0 23 18
39 69 12 38 21 74 21 80 0 22 18 10 25 -16 24 -100 37 -133 54 -133 13 0 24
25 50 111 17 61 30 114 27 116 -16 17 -34 -15 -51 -86 -10 -45 -22 -81 -26
-81 -4 0 -15 34 -25 75 -10 41 -21 80 -25 86 -16 27 -37 -4 -60 -85 -13 -47
-25 -84 -27 -82 -1 2 -13 41 -26 87 -17 62 -27 85 -41 88 -12 2 -16 -1 -12
-12z"/>
<path d="M9160 4525 l0 -115 60 0 c47 0 60 3 60 15 0 11 -12 15 -45 15 -45 0
-45 0 -45 35 0 34 1 35 40 35 29 0 40 4 40 15 0 11 -11 15 -40 15 -39 0 -40 1
-40 35 0 35 0 35 46 35 69 0 52 24 -19 28 l-57 3 0 -116z"/>
<path d="M10690 4525 c0 -96 3 -115 15 -115 11 0 15 12 15 50 l0 50 40 0 c29
0 40 4 40 15 0 11 -11 15 -40 15 -39 0 -40 1 -40 35 l0 35 50 0 c38 0 50 4 50
15 0 12 -14 15 -65 15 l-65 0 0 -115z"/>
<path d="M11440 4525 c0 -96 3 -115 15 -115 12 0 15 19 15 115 0 96 -3 115
-15 115 -12 0 -15 -19 -15 -115z"/>
<path d="M12713 4625 c-96 -41 -74 -195 30 -212 67 -10 127 35 127 97 0 18 -6
20 -60 20 -33 0 -60 -4 -60 -10 0 -5 20 -10 45 -10 51 0 54 -6 24 -44 -33 -42
-99 -35 -124 15 -22 42 -18 67 14 100 34 34 68 37 104 9 41 -33 66 -21 30 15
-35 35 -79 42 -130 20z"/>
<path d="M8050 4610 c0 -11 -4 -20 -10 -20 -5 0 -10 -7 -10 -15 0 -8 5 -15 10
-15 6 0 10 -28 10 -63 0 -36 5 -68 12 -75 17 -17 58 -15 58 3 0 8 -9 15 -20
15 -18 0 -20 7 -20 60 0 53 2 60 20 60 11 0 20 7 20 15 0 8 -9 15 -20 15 -13
0 -20 7 -20 20 0 11 -7 20 -15 20 -8 0 -15 -9 -15 -20z"/>
<path d="M11240 4610 c0 -11 -4 -20 -10 -20 -5 0 -10 -7 -10 -15 0 -8 5 -15
10 -15 6 0 10 -26 10 -59 0 -41 5 -65 16 -75 20 -21 64 -21 64 -1 0 8 -9 15
-19 15 -23 0 -31 19 -31 76 0 40 2 44 25 44 16 0 25 6 25 15 0 9 -9 15 -25 15
-18 0 -25 5 -25 20 0 11 -7 20 -15 20 -8 0 -15 -9 -15 -20z"/>
<path d="M13860 4610 c0 -11 -7 -20 -15 -20 -8 0 -15 -7 -15 -15 0 -8 7 -15
15 -15 12 0 15 -14 15 -63 0 -36 5 -68 12 -75 17 -17 58 -15 58 3 0 8 -9 15
-20 15 -18 0 -20 7 -20 60 0 53 2 60 20 60 11 0 20 7 20 15 0 8 -9 15 -20 15
-13 0 -20 7 -20 20 0 11 -7 20 -15 20 -8 0 -15 -9 -15 -20z"/>
<path d="M14950 4610 c0 -11 -4 -20 -10 -20 -5 0 -10 -7 -10 -15 0 -8 5 -15
10 -15 6 0 10 -26 10 -59 0 -41 5 -65 16 -75 20 -21 64 -21 64 -1 0 8 -9 15
-19 15 -23 0 -31 19 -31 76 0 40 2 44 25 44 16 0 25 6 25 15 0 9 -9 15 -25 15
-18 0 -25 5 -25 20 0 11 -7 20 -15 20 -8 0 -15 -9 -15 -20z"/>
<path d="M18120 4610 c0 -11 -4 -20 -10 -20 -5 0 -10 -7 -10 -15 0 -8 5 -15
10 -15 6 0 10 -26 10 -59 0 -41 5 -65 16 -75 20 -21 64 -21 64 -1 0 8 -9 15
-19 15 -23 0 -31 19 -31 76 0 40 2 44 25 44 16 0 25 6 25 15 0 9 -9 15 -25 15
-18 0 -25 5 -25 20 0 11 -7 20 -15 20 -8 0 -15 -9 -15 -20z"/>
<path d="M19920 4610 c0 -11 -4 -20 -10 -20 -5 0 -10 -7 -10 -15 0 -8 5 -15
10 -15 6 0 10 -26 10 -59 0 -41 5 -65 16 -75 20 -21 64 -21 64 -1 0 8 -9 15
-19 15 -23 0 -31 19 -31 76 0 40 2 44 25 44 16 0 25 6 25 15 0 9 -9 15 -25 15
-18 0 -25 5 -25 20 0 11 -7 20 -15 20 -8 0 -15 -9 -15 -20z"/>
<path d="M7960 4500 c0 -73 3 -90 15 -90 12 0 15 17 15 90 0 73 -3 90 -15 90
-12 0 -15 -17 -15 -90z"/>
<path d="M8465 4565 c-56 -55 -18 -155 60 -155 51 0 85 36 85 90 0 81 -89 121
-145 65z m97 -22 c22 -20 23 -61 1 -85 -22 -24 -69 -24 -83 1 -34 65 30 132
82 84z"/>
<path d="M8650 4520 c0 -57 4 -74 20 -90 22 -22 60 -26 91 -10 13 7 19 7 19 0
0 -5 7 -10 15 -10 12 0 15 17 15 90 0 73 -3 90 -15 90 -12 0 -15 -13 -15 -56
0 -70 -12 -94 -48 -94 -42 0 -52 17 -52 87 0 49 -3 63 -15 63 -12 0 -15 -14
-15 -70z"/>
<path d="M8860 4500 c0 -72 3 -90 15 -90 11 0 15 16 17 68 3 58 6 68 26 77 24
10 30 35 9 35 -7 0 -18 -5 -25 -12 -9 -9 -12 -9 -12 0 0 7 -7 12 -15 12 -12 0
-15 -17 -15 -90z"/>
<path d="M9335 4565 c-19 -18 -25 -35 -25 -65 0 -70 63 -111 123 -79 16 9 22
9 25 0 2 -6 10 -11 18 -11 11 0 14 19 14 90 0 71 -3 90 -14 90 -8 0 -16 -5
-18 -11 -3 -9 -9 -9 -25 0 -35 18 -72 13 -98 -14z m103 -17 c7 -7 12 -28 12
-48 0 -42 -14 -60 -49 -60 -53 0 -80 62 -44 102 18 20 63 24 81 6z"/>
<path d="M9546 4571 c-27 -30 -16 -54 37 -79 51 -24 63 -52 22 -52 -14 0 -34
5 -45 12 -27 17 -37 2 -15 -22 36 -40 115 -20 115 29 0 25 -7 31 -51 49 -54
23 -61 45 -16 50 18 2 29 -2 33 -12 7 -19 34 -21 34 -3 0 43 -83 63 -114 28z"/>
<path d="M9690 4581 c0 -6 14 -46 31 -90 31 -79 31 -80 15 -121 -15 -39 -15
-41 0 -38 11 2 34 43 65 118 52 124 56 140 36 140 -7 0 -24 -29 -36 -65 -13
-36 -26 -65 -30 -65 -3 0 -17 29 -29 65 -14 38 -30 65 -38 65 -8 0 -14 -4 -14
-9z"/>
<path d="M9985 4565 c-19 -18 -25 -35 -25 -65 0 -70 63 -111 123 -79 16 9 22
9 25 0 2 -6 10 -11 18 -11 11 0 14 19 14 90 0 71 -3 90 -14 90 -8 0 -16 -5
-18 -11 -3 -9 -9 -9 -25 0 -35 18 -72 13 -98 -14z m103 -17 c7 -7 12 -28 12
-48 0 -42 -14 -60 -49 -60 -53 0 -80 62 -44 102 18 20 63 24 81 6z"/>
<path d="M10187 4583 c-4 -3 -7 -44 -7 -90 0 -67 3 -83 15 -83 11 0 15 12 15
48 0 58 18 96 48 100 39 6 52 -15 52 -84 0 -50 3 -64 15 -64 12 0 15 14 15 70
0 57 -4 74 -20 90 -22 22 -69 26 -89 8 -11 -10 -14 -10 -18 0 -5 13 -16 16
-26 5z"/>
<path d="M10870 4570 c-57 -57 -24 -160 53 -160 18 0 39 6 46 13 11 10 14 10
18 0 3 -7 11 -13 19 -13 11 0 14 19 14 90 0 71 -3 90 -14 90 -8 0 -16 -6 -19
-12 -4 -10 -7 -10 -18 0 -20 19 -76 15 -99 -8z m110 -42 c13 -25 13 -31 0 -55
-21 -38 -71 -44 -94 -11 -9 12 -16 29 -16 38 0 9 7 26 16 38 23 33 73 27 94
-10z"/>
<path d="M11092 4583 c-7 -2 -17 -13 -22 -24 -16 -29 4 -56 50 -70 28 -9 40
-18 40 -31 0 -21 -39 -25 -70 -6 -29 18 -39 -1 -11 -23 34 -28 87 -25 106 5
22 33 7 61 -42 77 -39 12 -55 27 -47 41 9 14 51 9 64 -7 17 -21 30 -19 30 5 0
31 -56 50 -98 33z"/>
<path d="M11520 4500 c0 -73 3 -90 15 -90 12 0 15 14 15 63 0 67 10 87 45 87
35 0 45 -20 45 -87 0 -49 3 -63 15 -63 12 0 15 15 15 74 0 66 -3 77 -22 90
-27 19 -69 21 -86 4 -9 -9 -12 -9 -12 0 0 7 -7 12 -15 12 -12 0 -15 -17 -15
-90z"/>
<path d="M11700 4588 c0 -2 15 -42 34 -89 46 -115 61 -116 104 -7 36 95 37 98
18 98 -7 0 -20 -19 -29 -42 -9 -24 -21 -56 -28 -73 l-11 -30 -27 70 c-17 44
-33 71 -44 73 -9 2 -17 2 -17 0z"/>
<path d="M11934 4578 c-42 -20 -55 -78 -29 -127 40 -78 165 -40 165 49 0 69
-72 110 -136 78z m96 -50 c13 -25 13 -31 0 -55 -17 -30 -61 -43 -85 -23 -22
19 -27 60 -10 87 23 34 73 29 95 -9z"/>
<path d="M12110 4500 c0 -73 3 -90 15 -90 12 0 15 17 15 90 0 73 -3 90 -15 90
-12 0 -15 -17 -15 -90z"/>
<path d="M12207 4570 c-44 -35 -44 -112 1 -146 28 -22 86 -17 110 9 12 13 22
26 22 30 0 13 -27 7 -40 -8 -15 -18 -61 -20 -78 -3 -7 7 -12 28 -12 48 0 20 5
41 12 48 17 17 63 15 78 -3 14 -17 40 -20 40 -6 0 18 -53 51 -80 51 -15 0 -39
-9 -53 -20z"/>
<path d="M12395 4565 c-55 -54 -18 -155 57 -155 38 0 78 24 78 46 0 19 -27 18
-38 -2 -18 -33 -92 -10 -92 28 0 4 32 8 70 8 68 0 70 1 70 25 0 67 -96 100
-145 50z m99 -21 c24 -24 10 -34 -45 -34 -51 0 -59 8 -33 34 20 20 58 20 78 0z"/>
<path d="M12930 4570 c-58 -58 -24 -160 54 -160 32 0 86 32 86 51 0 14 -26 11
-40 -6 -24 -29 -90 -13 -90 22 0 9 18 13 65 13 63 0 65 1 65 25 0 62 -95 100
-140 55z m98 -22 c26 -26 13 -38 -38 -38 -34 0 -50 4 -50 13 0 21 22 37 50 37
14 0 31 -5 38 -12z"/>
<path d="M13110 4500 c0 -73 3 -90 15 -90 12 0 15 13 15 56 0 71 12 94 50 94
38 0 50 -23 50 -94 0 -45 3 -56 16 -56 24 0 16 130 -10 159 -21 23 -56 27 -87
11 -13 -7 -19 -7 -19 0 0 5 -7 10 -15 10 -12 0 -15 -17 -15 -90z"/>
<path d="M13333 4566 c-62 -53 -21 -156 63 -156 33 0 74 28 74 50 0 15 -26 12
-40 -5 -24 -29 -90 -13 -90 22 0 9 18 13 65 13 l65 0 0 29 c0 36 -40 71 -81
71 -15 0 -40 -11 -56 -24z m95 -18 c26 -26 13 -38 -38 -38 -34 0 -50 4 -50 13
0 21 22 37 50 37 14 0 31 -5 38 -12z"/>
<path d="M13517 4583 c-4 -3 -7 -44 -7 -90 0 -67 3 -83 15 -83 11 0 15 12 15
44 0 58 15 97 40 103 22 6 28 33 7 33 -7 0 -19 -6 -26 -12 -11 -10 -14 -10
-18 0 -5 13 -16 16 -26 5z"/>
<path d="M13650 4570 c-57 -57 -24 -160 53 -160 18 0 39 6 46 13 11 10 14 10
18 0 3 -7 11 -13 19 -13 11 0 14 19 14 90 0 71 -3 90 -14 90 -8 0 -16 -6 -19
-12 -4 -10 -7 -10 -18 0 -20 19 -76 15 -99 -8z m110 -42 c13 -25 13 -31 0 -55
-21 -38 -71 -44 -94 -11 -9 12 -16 29 -16 38 0 9 7 26 16 38 23 33 73 27 94
-10z"/>
<path d="M13985 4565 c-56 -55 -18 -155 60 -155 51 0 85 36 85 90 0 81 -89
121 -145 65z m97 -22 c22 -20 23 -61 1 -85 -22 -24 -69 -24 -83 1 -34 65 30
132 82 84z"/>
<path d="M14170 4500 c0 -73 3 -90 15 -90 12 0 15 13 15 59 0 61 15 91 46 91
8 0 14 7 14 15 0 18 -31 20 -48 3 -9 -9 -12 -9 -12 0 0 7 -7 12 -15 12 -12 0
-15 -17 -15 -90z"/>
<path d="M14492 4583 c-7 -2 -17 -13 -22 -24 -16 -29 4 -56 50 -70 28 -9 40
-18 40 -31 0 -21 -39 -25 -70 -6 -29 18 -39 -1 -11 -23 34 -28 87 -25 106 5
22 33 7 61 -42 77 -39 12 -55 27 -47 41 9 14 51 9 64 -7 17 -21 30 -19 30 5 0
31 -56 50 -98 33z"/>
<path d="M14655 4565 c-56 -55 -18 -155 60 -155 51 0 85 36 85 90 0 81 -89
121 -145 65z m97 -22 c22 -20 23 -61 1 -85 -22 -24 -69 -24 -83 1 -34 65 30
132 82 84z"/>
<path d="M15044 4574 c4 -11 17 -52 29 -91 27 -94 46 -97 72 -13 10 33 21 60
24 60 3 0 14 -27 24 -61 24 -83 44 -78 74 21 26 86 28 103 11 98 -7 -3 -20
-30 -28 -60 -8 -31 -18 -59 -21 -63 -4 -3 -15 24 -24 60 -24 89 -46 89 -70 -1
-10 -36 -21 -62 -26 -57 -4 4 -14 33 -21 63 -10 39 -20 56 -33 58 -14 3 -16 0
-11 -14z"/>
<path d="M15343 4566 c-22 -19 -28 -32 -28 -64 0 -72 65 -114 126 -82 13 7 19
7 19 0 0 -5 7 -10 15 -10 12 0 15 17 15 90 0 73 -3 90 -15 90 -8 0 -15 -5 -15
-10 0 -7 -6 -7 -19 0 -32 17 -68 12 -98 -14z m99 -23 c39 -35 11 -103 -42
-103 -34 0 -53 22 -53 60 0 16 5 36 13 44 16 21 59 20 82 -1z"/>
<path d="M15540 4500 c0 -73 3 -90 15 -90 12 0 15 13 15 59 0 61 15 91 46 91
8 0 14 7 14 15 0 18 -14 19 -41 5 -13 -7 -19 -7 -19 0 0 5 -7 10 -15 10 -12 0
-15 -17 -15 -90z"/>
<path d="M15675 4565 c-55 -54 -18 -155 57 -155 38 0 78 24 78 46 0 19 -27 18
-38 -2 -18 -33 -92 -10 -92 28 0 4 32 8 70 8 68 0 70 1 70 25 0 67 -96 100
-145 50z m99 -21 c24 -24 10 -34 -45 -34 -51 0 -59 8 -33 34 20 20 58 20 78 0z"/>
<path d="M15990 4583 c0 -5 14 -44 32 -87 31 -78 31 -80 16 -123 -14 -39 -14
-43 1 -43 11 0 28 31 55 98 22 53 46 112 53 130 13 31 12 33 -4 30 -11 -2 -26
-27 -41 -66 -13 -35 -28 -60 -32 -55 -4 4 -17 34 -30 66 -12 31 -29 57 -36 57
-8 0 -14 -3 -14 -7z"/>
<path d="M16205 4565 c-56 -55 -18 -155 60 -155 51 0 85 36 85 90 0 81 -89
121 -145 65z m97 -22 c22 -20 23 -61 1 -85 -22 -24 -69 -24 -83 1 -34 65 30
132 82 84z"/>
<path d="M16390 4520 c0 -57 4 -74 20 -90 22 -22 60 -26 91 -10 13 7 19 7 19
0 0 -5 7 -10 15 -10 12 0 15 17 15 90 0 73 -3 90 -15 90 -12 0 -15 -13 -15
-56 0 -70 -12 -94 -48 -94 -42 0 -52 17 -52 87 0 49 -3 63 -15 63 -12 0 -15
-14 -15 -70z"/>
<path d="M16700 4570 c-58 -58 -23 -160 55 -160 26 0 44 8 63 27 24 24 25 28
9 31 -10 2 -24 -4 -31 -13 -19 -26 -67 -16 -86 18 -13 24 -13 30 0 55 19 33
67 43 86 17 7 -9 21 -15 31 -13 16 3 15 7 -9 31 -33 33 -88 37 -118 7z"/>
<path d="M16896 4569 c-21 -17 -26 -29 -26 -65 0 -73 61 -116 121 -84 13 7 19
7 19 0 0 -5 7 -10 15 -10 12 0 15 17 15 90 0 73 -3 90 -15 90 -8 0 -15 -5 -15
-10 0 -7 -6 -7 -19 0 -31 16 -66 12 -95 -11z m96 -26 c36 -32 12 -103 -35
-103 -49 0 -75 64 -40 102 20 22 51 23 75 1z"/>
<path d="M17097 4583 c-4 -3 -7 -44 -7 -90 0 -67 3 -83 15 -83 11 0 15 12 15
48 0 58 18 96 48 100 39 6 52 -15 52 -84 0 -50 3 -64 15 -64 12 0 15 14 15 70
0 57 -4 74 -20 90 -22 22 -69 26 -89 8 -11 -10 -14 -10 -18 0 -5 13 -16 16
-26 5z"/>
<path d="M17403 4566 c-62 -53 -21 -156 63 -156 33 0 74 28 74 50 0 15 -26 12
-40 -5 -24 -29 -90 -13 -90 22 0 9 18 13 65 13 l65 0 0 29 c0 36 -40 71 -81
71 -15 0 -40 -11 -56 -24z m95 -18 c26 -26 13 -38 -38 -38 -34 0 -50 4 -50 13
0 21 22 37 50 37 14 0 31 -5 38 -12z"/>
<path d="M17824 4578 c-42 -20 -55 -78 -29 -127 40 -78 165 -40 165 49 0 69
-72 110 -136 78z m96 -50 c13 -25 13 -31 0 -55 -17 -30 -61 -43 -85 -23 -22
19 -27 60 -10 87 23 34 73 29 95 -9z"/>
<path d="M18000 4500 c0 -72 3 -90 15 -90 11 0 15 16 17 68 3 58 6 68 26 77
24 10 30 35 9 35 -7 0 -18 -5 -25 -12 -9 -9 -12 -9 -12 0 0 7 -7 12 -15 12
-12 0 -15 -17 -15 -90z"/>
<path d="M18330 4570 c-58 -58 -24 -160 54 -160 32 0 86 32 86 51 0 14 -26 11
-40 -6 -24 -29 -90 -13 -90 22 0 9 18 13 65 13 63 0 65 1 65 25 0 62 -95 100
-140 55z m98 -22 c26 -26 13 -38 -38 -38 -34 0 -50 4 -50 13 0 21 22 37 50 37
14 0 31 -5 38 -12z"/>
<path d="M18532 4583 c-7 -2 -17 -13 -22 -24 -16 -29 4 -56 50 -70 28 -9 40
-18 40 -31 0 -21 -39 -25 -70 -6 -29 18 -39 -1 -11 -23 34 -28 87 -25 106 5
22 33 7 61 -42 77 -39 12 -55 27 -47 41 9 14 51 9 64 -7 17 -21 30 -19 30 5 0
31 -56 50 -98 33z"/>
<path d="M18686 4571 c-27 -30 -16 -54 37 -79 51 -24 63 -52 22 -52 -14 0 -34
5 -45 12 -27 17 -37 2 -15 -22 36 -40 115 -20 115 29 0 25 -7 31 -51 49 -54
23 -61 45 -16 50 18 2 29 -2 33 -12 7 -19 34 -21 34 -3 0 43 -83 63 -114 28z"/>
<path d="M18900 4587 c0 -1 16 -40 35 -87 35 -81 35 -84 20 -122 -19 -48 -19
-50 1 -46 9 2 35 51 65 122 54 132 55 136 35 136 -7 0 -24 -27 -36 -60 -12
-33 -26 -63 -30 -65 -4 -3 -18 24 -31 60 -17 48 -28 65 -41 65 -10 0 -18 -1
-18 -3z"/>
<path d="M19205 4565 c-55 -54 -18 -155 57 -155 38 0 78 24 78 46 0 19 -20 18
-35 -2 -16 -22 -65 -21 -82 2 -18 24 -16 69 3 88 20 20 58 21 74 1 16 -19 40
-19 40 -1 0 22 -40 46 -78 46 -22 0 -41 -8 -57 -25z"/>
<path d="M19380 4500 c0 -73 3 -90 15 -90 12 0 15 13 15 59 0 61 15 91 46 91
8 0 14 7 14 15 0 18 -14 19 -41 5 -13 -7 -19 -7 -19 0 0 5 -7 10 -15 10 -12 0
-15 -17 -15 -90z"/>
<path d="M19520 4570 c-58 -58 -24 -160 54 -160 32 0 86 32 86 51 0 14 -26 11
-40 -6 -24 -29 -90 -13 -90 22 0 9 18 13 65 13 63 0 65 1 65 25 0 62 -95 100
-140 55z m98 -22 c26 -26 13 -38 -38 -38 -34 0 -50 4 -50 13 0 21 22 37 50 37
14 0 31 -5 38 -12z"/>
<path d="M19720 4570 c-57 -57 -24 -160 53 -160 18 0 39 6 46 13 11 10 14 10
18 0 3 -7 11 -13 19 -13 11 0 14 19 14 90 0 71 -3 90 -14 90 -8 0 -16 -6 -19
-12 -4 -10 -7 -10 -18 0 -20 19 -76 15 -99 -8z m110 -42 c13 -25 13 -31 0 -55
-21 -38 -71 -44 -94 -11 -9 12 -16 29 -16 38 0 9 7 26 16 38 23 33 73 27 94
-10z"/>
<path d="M20053 4566 c-62 -53 -21 -156 63 -156 33 0 74 28 74 50 0 15 -26 12
-40 -5 -24 -29 -90 -13 -90 22 0 9 18 13 65 13 l65 0 0 29 c0 36 -40 71 -81
71 -15 0 -40 -11 -56 -24z m95 -18 c26 -26 13 -38 -38 -38 -34 0 -50 4 -50 13
0 21 22 37 50 37 14 0 31 -5 38 -12z"/>
<path d="M20520 4500 c0 -73 3 -90 15 -90 12 0 15 17 15 90 0 73 -3 90 -15 90
-12 0 -15 -17 -15 -90z"/>
<path d="M20620 4570 c-57 -57 -24 -160 53 -160 18 0 38 5 45 12 17 17 26 3
18 -27 -4 -14 -18 -31 -32 -37 -20 -10 -29 -8 -54 10 -48 36 -70 22 -30 -18
33 -33 95 -30 128 6 20 23 22 35 22 130 0 83 -3 104 -14 104 -8 0 -16 -6 -19
-12 -4 -10 -7 -10 -18 0 -20 19 -76 15 -99 -8z m110 -42 c13 -25 13 -31 0 -55
-21 -38 -71 -44 -94 -11 -9 12 -16 29 -16 38 0 9 7 26 16 38 23 33 73 27 94
-10z"/>
<path d="M21020 4530 c0 -6 27 -10 60 -10 33 0 60 4 60 10 0 6 -27 10 -60 10
-33 0 -60 -4 -60 -10z"/>
<path d="M15845 4414 c-6 -33 -1 -54 10 -43 2 3 11 22 20 42 14 35 14 37 -4
37 -14 0 -21 -10 -26 -36z"/>
<path d="M8247 4173 c-4 -3 -7 -12 -7 -20 0 -15 26 -18 34 -4 7 11 -18 33 -27
24z"/>
<path d="M8707 4173 c-4 -3 -7 -12 -7 -20 0 -15 26 -18 34 -4 7 11 -18 33 -27
24z"/>
<path d="M9371 4166 c-12 -14 -5 -26 16 -26 15 0 18 26 4 34 -5 3 -14 0 -20
-8z"/>
<path d="M12111 4170 c-16 -9 -6 -30 15 -30 15 0 20 25 6 34 -4 2 -14 1 -21
-4z"/>
<path d="M13137 4173 c-4 -3 -7 -12 -7 -20 0 -15 26 -18 34 -4 7 11 -18 33
-27 24z"/>
<path d="M15260 4167 c-14 -7 -26 -23 -28 -35 -2 -12 -8 -22 -13 -22 -5 0 -9
-7 -9 -15 0 -8 5 -15 10 -15 6 0 10 -32 10 -75 0 -60 3 -75 15 -75 12 0 15 15
15 75 0 68 2 75 20 75 11 0 20 7 20 15 0 8 -9 15 -20 15 -24 0 -27 25 -4 38
28 16 13 33 -16 19z"/>
<path d="M16968 4173 c-10 -2 -21 -17 -25 -31 -3 -15 -13 -32 -22 -39 -14 -10
-14 -12 2 -18 14 -6 17 -20 17 -81 0 -59 3 -74 15 -74 12 0 15 15 15 75 0 60
3 75 15 75 8 0 15 7 15 15 0 8 -7 15 -15 15 -8 0 -15 7 -15 15 0 9 7 18 15 21
8 4 15 12 15 20 0 14 -3 15 -32 7z"/>
<path d="M8160 4050 c0 -100 3 -120 15 -120 13 0 15 20 15 120 0 100 -2 120
-15 120 -12 0 -15 -20 -15 -120z"/>
<path d="M10090 4155 c0 -8 9 -15 20 -15 11 0 20 7 20 15 0 8 -9 15 -20 15
-11 0 -20 -7 -20 -15z"/>
<path d="M11070 4155 c0 -8 9 -15 20 -15 11 0 20 7 20 15 0 8 -9 15 -20 15
-11 0 -20 -7 -20 -15z"/>
<path d="M12030 4050 c0 -100 3 -120 15 -120 13 0 15 20 15 120 0 100 -2 120
-15 120 -12 0 -15 -20 -15 -120z"/>
<path d="M12510 4155 c0 -8 9 -15 20 -15 11 0 20 7 20 15 0 8 -9 15 -20 15
-11 0 -20 -7 -20 -15z"/>
<path d="M13830 4050 c0 -100 3 -120 15 -120 11 0 15 12 15 48 0 58 18 96 48
100 39 6 52 -15 52 -84 0 -50 3 -64 15 -64 12 0 15 14 15 70 0 57 -4 74 -20
90 -21 21 -74 27 -85 10 -13 -22 -25 -8 -25 30 0 29 -4 40 -15 40 -12 0 -15
-20 -15 -120z"/>
<path d="M15060 4130 c0 -37 -2 -40 -19 -30 -32 17 -68 12 -98 -14 -22 -19
-28 -32 -28 -64 0 -72 65 -114 126 -82 13 7 19 7 19 0 0 -5 7 -10 15 -10 13 0
15 20 15 120 0 100 -2 120 -15 120 -11 0 -15 -11 -15 -40z m-18 -67 c39 -35
11 -103 -42 -103 -34 0 -53 22 -53 60 0 16 5 36 13 44 16 21 59 20 82 -1z"/>
<path d="M15740 4050 c0 -100 3 -120 15 -120 12 0 15 13 15 56 0 71 12 94 50
94 38 0 50 -23 50 -94 0 -43 3 -56 15 -56 12 0 15 14 15 64 0 96 -46 140 -111
106 -17 -10 -19 -7 -19 30 0 29 -4 40 -15 40 -12 0 -15 -20 -15 -120z"/>
<path d="M18290 4050 c0 -100 3 -120 15 -120 13 0 15 20 15 120 0 100 -2 120
-15 120 -12 0 -15 -20 -15 -120z"/>
<path d="M19040 4050 c0 -100 3 -120 15 -120 11 0 15 11 15 37 l0 37 38 -37
c21 -20 46 -37 56 -37 14 0 10 8 -18 42 -20 23 -36 44 -36 48 0 4 16 25 36 48
31 36 33 42 16 42 -11 0 -34 -16 -51 -35 -17 -19 -33 -35 -36 -35 -3 0 -5 29
-5 65 0 51 -3 65 -15 65 -12 0 -15 -20 -15 -120z"/>
<path d="M20740 4050 c0 -100 3 -120 15 -120 13 0 15 20 15 120 0 100 -2 120
-15 120 -12 0 -15 -20 -15 -120z"/>
<path d="M20820 4155 c0 -8 9 -15 20 -15 11 0 20 7 20 15 0 8 -9 15 -20 15
-11 0 -20 -7 -20 -15z"/>
<path d="M8330 4130 c0 -11 -7 -20 -15 -20 -8 0 -15 -7 -15 -15 0 -8 7 -15 15
-15 12 0 15 -14 15 -63 0 -36 5 -68 12 -75 17 -17 58 -15 58 3 0 8 -9 15 -20
15 -18 0 -20 7 -20 60 0 53 2 60 20 60 11 0 20 7 20 15 0 8 -9 15 -20 15 -13
0 -20 7 -20 20 0 11 -7 20 -15 20 -8 0 -15 -9 -15 -20z"/>
<path d="M10960 4130 c0 -11 -4 -20 -10 -20 -5 0 -10 -7 -10 -15 0 -8 5 -15
10 -15 6 0 10 -26 10 -59 0 -41 5 -65 16 -75 20 -21 64 -21 64 -1 0 8 -9 15
-19 15 -23 0 -31 19 -31 76 0 40 2 44 25 44 16 0 25 6 25 15 0 9 -9 15 -25 15
-18 0 -25 5 -25 20 0 11 -7 20 -15 20 -8 0 -15 -9 -15 -20z"/>
<path d="M13020 4130 c0 -11 -4 -20 -10 -20 -5 0 -10 -7 -10 -15 0 -8 5 -15
10 -15 6 0 10 -28 10 -65 0 -68 12 -85 59 -85 28 0 27 28 -1 32 -20 3 -23 10
-26 61 -3 55 -2 57 23 57 16 0 25 6 25 15 0 9 -9 15 -25 15 -18 0 -25 5 -25
20 0 11 -7 20 -15 20 -8 0 -15 -9 -15 -20z"/>
<path d="M13720 4130 c0 -11 -4 -20 -10 -20 -5 0 -10 -7 -10 -15 0 -8 5 -15
10 -15 6 0 10 -26 10 -59 0 -41 5 -65 16 -75 20 -21 64 -21 64 -1 0 8 -9 15
-19 15 -23 0 -31 19 -31 76 0 40 2 44 25 44 16 0 25 6 25 15 0 9 -9 15 -25 15
-18 0 -25 5 -25 20 0 11 -7 20 -15 20 -8 0 -15 -9 -15 -20z"/>
<path d="M19880 4130 c0 -11 -4 -20 -10 -20 -5 0 -10 -7 -10 -15 0 -8 5 -15
10 -15 6 0 10 -28 10 -63 0 -36 5 -68 12 -75 17 -17 58 -15 58 3 0 8 -9 15
-20 15 -18 0 -20 7 -20 60 0 53 2 60 20 60 11 0 20 7 20 15 0 8 -9 15 -20 15
-13 0 -20 7 -20 20 0 11 -7 20 -15 20 -8 0 -15 -9 -15 -20z"/>
<path d="M7543 4086 c-22 -19 -28 -32 -28 -64 0 -72 65 -114 126 -82 18 10 19
7 19 -40 0 -38 4 -50 15 -50 13 0 15 21 15 130 0 109 -2 130 -15 130 -8 0 -15
-5 -15 -10 0 -7 -6 -7 -19 0 -32 17 -68 12 -98 -14z m99 -23 c39 -35 11 -103
-42 -103 -34 0 -53 22 -53 60 0 16 5 36 13 44 16 21 59 20 82 -1z"/>
<path d="M7740 4040 c0 -57 4 -74 20 -90 22 -22 60 -26 91 -10 13 7 19 7 19 0
0 -5 7 -10 15 -10 12 0 15 17 15 90 0 73 -3 90 -15 90 -12 0 -15 -13 -15 -56
0 -70 -12 -94 -48 -94 -42 0 -52 17 -52 87 0 49 -3 63 -15 63 -12 0 -15 -14
-15 -70z"/>
<path d="M7966 4089 c-21 -17 -26 -29 -26 -65 0 -73 61 -116 121 -84 13 7 19
7 19 0 0 -5 7 -10 15 -10 12 0 15 17 15 90 0 73 -3 90 -15 90 -8 0 -15 -5 -15
-10 0 -7 -6 -7 -19 0 -31 16 -66 12 -95 -11z m96 -26 c36 -32 12 -103 -35
-103 -49 0 -75 64 -40 102 20 22 51 23 75 1z"/>
<path d="M8240 4020 c0 -73 3 -90 15 -90 12 0 15 17 15 90 0 73 -3 90 -15 90
-12 0 -15 -17 -15 -90z"/>
<path d="M8420 4103 c0 -5 14 -44 32 -87 31 -78 31 -80 16 -123 -14 -39 -14
-43 1 -43 11 0 28 31 55 98 22 53 46 112 53 130 13 31 12 33 -4 30 -11 -2 -26
-27 -41 -66 -13 -35 -28 -60 -32 -55 -4 4 -17 34 -30 66 -12 31 -29 57 -36 57
-8 0 -14 -3 -14 -7z"/>
<path d="M8700 4020 c0 -73 3 -90 15 -90 12 0 15 17 15 90 0 73 -3 90 -15 90
-12 0 -15 -17 -15 -90z"/>
<path d="M8780 4020 c0 -73 3 -90 15 -90 12 0 15 13 15 56 0 71 12 94 50 94
38 0 50 -23 50 -94 0 -43 3 -56 15 -56 12 0 15 14 15 70 0 57 -4 74 -20 90
-22 22 -60 26 -91 10 -13 -7 -19 -7 -19 0 0 5 -7 10 -15 10 -12 0 -15 -17 -15
-90z"/>
<path d="M8970 4104 c0 -4 14 -45 32 -90 34 -92 59 -109 79 -56 58 150 59 153
42 150 -11 -2 -27 -30 -44 -73 l-27 -70 -11 30 c-7 17 -19 49 -28 73 -9 23
-22 42 -29 42 -8 0 -14 -3 -14 -6z"/>
<path d="M9183 4086 c-22 -19 -28 -32 -28 -66 0 -34 6 -47 28 -66 62 -53 147
-15 147 66 0 81 -85 119 -147 66z m99 -23 c22 -20 23 -61 1 -85 -19 -22 -66
-24 -82 -4 -16 20 -17 72 -1 91 16 20 59 19 82 -2z"/>
<path d="M9370 4020 c0 -73 3 -90 15 -90 12 0 15 17 15 90 0 73 -3 90 -15 90
-12 0 -15 -17 -15 -90z"/>
<path d="M9465 4085 c-55 -54 -18 -155 57 -155 38 0 78 24 78 46 0 19 -20 18
-35 -2 -16 -22 -65 -21 -82 2 -18 24 -16 69 3 88 20 20 58 21 74 1 16 -19 40
-19 40 -1 0 22 -40 46 -78 46 -22 0 -41 -8 -57 -25z"/>
<path d="M9660 4090 c-58 -58 -24 -160 54 -160 32 0 86 32 86 51 0 14 -26 11
-40 -6 -24 -29 -90 -13 -90 22 0 9 18 13 65 13 63 0 65 1 65 25 0 62 -95 100
-140 55z m98 -22 c26 -26 13 -38 -38 -38 -34 0 -50 4 -50 13 0 21 22 37 50 37
14 0 31 -5 38 -12z"/>
<path d="M9856 4097 c-12 -9 -17 -23 -14 -42 2 -25 10 -32 48 -46 25 -9 45
-23 45 -30 0 -18 -55 -25 -65 -9 -4 7 -16 10 -26 8 -18 -3 -17 -5 4 -26 28
-28 82 -30 106 -3 27 30 16 54 -36 79 -27 12 -48 29 -48 37 0 21 50 19 66 -2
9 -14 16 -15 24 -6 9 8 7 16 -9 32 -24 24 -68 27 -95 8z"/>
<path d="M10097 4103 c-4 -3 -7 -44 -7 -90 0 -67 3 -83 15 -83 12 0 15 17 15
90 0 83 -5 101 -23 83z"/>
<path d="M10170 4020 c0 -73 3 -90 15 -90 12 0 15 13 15 56 0 71 12 94 50 94
38 0 50 -23 50 -94 0 -43 3 -56 15 -56 12 0 15 14 15 70 0 57 -4 74 -20 90
-22 22 -60 26 -91 10 -13 -7 -19 -7 -19 0 0 5 -7 10 -15 10 -12 0 -15 -17 -15
-90z"/>
<path d="M10460 4020 c0 -73 3 -90 15 -90 12 0 15 13 15 56 0 71 12 94 50 94
38 0 50 -23 50 -94 0 -43 3 -56 15 -56 12 0 15 14 15 70 0 57 -4 74 -20 90
-22 22 -60 26 -91 10 -13 -7 -19 -7 -19 0 0 5 -7 10 -15 10 -12 0 -15 -17 -15
-90z"/>
<path d="M10685 4085 c-56 -55 -18 -155 60 -155 51 0 85 36 85 90 0 81 -89
121 -145 65z m97 -22 c22 -20 23 -61 1 -85 -22 -24 -69 -24 -83 1 -34 65 30
132 82 84z"/>
<path d="M11077 4103 c-4 -3 -7 -44 -7 -90 0 -67 3 -83 15 -83 12 0 15 17 15
90 0 83 -5 101 -23 83z"/>
<path d="M11157 4103 c-4 -3 -7 -44 -7 -90 0 -67 3 -83 15 -83 11 0 15 12 15
48 0 58 18 96 48 100 39 6 52 -15 52 -84 0 -50 3 -64 15 -64 12 0 15 13 15 56
0 71 12 94 51 94 36 0 49 -27 49 -101 0 -37 4 -49 15 -49 25 0 21 120 -6 154
-23 29 -63 34 -95 12 -17 -12 -22 -12 -39 0 -23 17 -67 18 -84 2 -11 -10 -14
-10 -18 0 -5 13 -16 16 -26 5z"/>
<path d="M11500 4090 c-58 -58 -24 -160 54 -160 32 0 86 32 86 51 0 14 -26 11
-40 -6 -24 -29 -90 -13 -90 22 0 9 18 13 65 13 63 0 65 1 65 25 0 62 -95 100
-140 55z m98 -22 c26 -26 13 -38 -38 -38 -34 0 -50 4 -50 13 0 21 22 37 50 37
14 0 31 -5 38 -12z"/>
<path d="M11845 4085 c-55 -54 -18 -155 57 -155 38 0 78 24 78 46 0 19 -27 18
-38 -2 -18 -33 -92 -10 -92 28 0 4 32 8 70 8 68 0 70 1 70 25 0 67 -96 100
-145 50z m99 -21 c24 -24 10 -34 -45 -34 -51 0 -59 8 -33 34 20 20 58 20 78 0z"/>
<path d="M12110 4020 c0 -73 3 -90 15 -90 12 0 15 17 15 90 0 73 -3 90 -15 90
-12 0 -15 -17 -15 -90z"/>
<path d="M12190 4020 c0 -73 3 -90 15 -90 12 0 15 14 15 63 0 67 10 87 45 87
35 0 45 -20 45 -87 0 -47 4 -63 14 -63 10 0 15 18 18 66 4 69 14 84 55 84 30
0 43 -28 43 -94 0 -43 3 -56 15 -56 12 0 15 14 15 70 0 57 -4 74 -20 90 -23
23 -67 26 -96 6 -17 -12 -22 -12 -39 0 -23 17 -67 18 -83 2 -9 -9 -12 -9 -12
0 0 7 -7 12 -15 12 -12 0 -15 -17 -15 -90z"/>
<path d="M12517 4103 c-4 -3 -7 -44 -7 -90 0 -67 3 -83 15 -83 12 0 15 17 15
90 0 83 -5 101 -23 83z"/>
<path d="M12597 4103 c-4 -3 -7 -44 -7 -90 0 -67 3 -83 15 -83 11 0 15 12 15
48 0 58 18 96 48 100 39 6 52 -15 52 -84 0 -50 3 -64 15 -64 12 0 15 14 15 70
0 57 -4 74 -20 90 -22 22 -69 26 -89 8 -11 -10 -14 -10 -18 0 -5 13 -16 16
-26 5z"/>
<path d="M12815 4085 c-19 -18 -25 -35 -25 -65 0 -70 63 -111 123 -79 16 9 22
9 25 0 2 -6 10 -11 18 -11 11 0 14 19 14 90 0 71 -3 90 -14 90 -8 0 -16 -5
-18 -11 -3 -9 -9 -9 -25 0 -35 18 -72 13 -98 -14z m103 -17 c7 -7 12 -28 12
-48 0 -42 -14 -60 -49 -60 -53 0 -80 62 -44 102 18 20 63 24 81 6z"/>
<path d="M13130 4020 c0 -73 3 -90 15 -90 12 0 15 17 15 90 0 73 -3 90 -15 90
-12 0 -15 -17 -15 -90z"/>
<path d="M13210 4020 c0 -73 3 -90 15 -90 12 0 15 13 15 56 0 71 12 94 50 94
38 0 50 -23 50 -94 0 -45 3 -56 16 -56 24 0 16 130 -10 159 -21 23 -56 27 -87
11 -13 -7 -19 -7 -19 0 0 5 -7 10 -15 10 -12 0 -15 -17 -15 -90z"/>
<path d="M13433 4086 c-22 -19 -28 -32 -28 -64 0 -72 65 -114 126 -82 16 9 19
7 19 -13 0 -26 -28 -57 -52 -57 -8 0 -27 9 -41 20 -35 28 -51 26 -36 -2 17
-32 28 -38 77 -38 71 0 82 19 82 150 0 91 -3 110 -15 110 -8 0 -15 -5 -15 -10
0 -7 -6 -7 -19 0 -32 17 -68 12 -98 -14z m99 -23 c39 -35 11 -103 -42 -103
-34 0 -53 22 -53 60 0 16 5 36 13 44 16 21 59 20 82 -1z"/>
<path d="M14055 4085 c-55 -54 -18 -155 57 -155 38 0 78 24 78 46 0 19 -27 18
-38 -2 -18 -33 -92 -10 -92 28 0 4 32 8 70 8 68 0 70 1 70 25 0 67 -96 100
-145 50z m99 -21 c24 -24 10 -34 -45 -34 -51 0 -59 8 -33 34 20 20 58 20 78 0z"/>
<path d="M14320 4020 c0 -73 3 -90 15 -90 12 0 15 13 15 56 0 71 12 94 50 94
38 0 50 -23 50 -94 0 -43 3 -56 15 -56 12 0 15 14 15 70 0 57 -4 74 -20 90
-22 22 -60 26 -91 10 -13 -7 -19 -7 -19 0 0 5 -7 10 -15 10 -12 0 -15 -17 -15
-90z"/>
<path d="M14546 4089 c-22 -17 -26 -28 -26 -69 0 -41 4 -52 26 -69 32 -25 81
-27 112 -5 23 16 30 44 11 44 -6 0 -22 -9 -36 -19 -31 -25 -83 -9 -83 25 0 11
17 14 70 14 77 0 83 6 55 59 -24 47 -83 56 -129 20z m92 -21 c26 -26 13 -38
-38 -38 -34 0 -50 4 -50 13 0 21 22 37 50 37 14 0 31 -5 38 -12z"/>
<path d="M14743 4086 c-62 -53 -21 -156 63 -156 33 0 74 28 74 50 0 15 -26 12
-40 -5 -24 -29 -90 -13 -90 22 0 9 18 13 65 13 l65 0 0 29 c0 36 -40 71 -81
71 -15 0 -40 -11 -56 -24z m95 -18 c26 -26 13 -38 -38 -38 -34 0 -50 4 -50 13
0 21 22 37 50 37 14 0 31 -5 38 -12z"/>
<path d="M15364 4098 c-42 -20 -55 -78 -29 -127 40 -78 165 -40 165 49 0 69
-72 110 -136 78z m96 -50 c13 -25 13 -31 0 -55 -17 -30 -61 -43 -85 -23 -22
19 -27 60 -10 87 23 34 73 29 95 -9z"/>
<path d="M15537 4103 c-4 -3 -7 -44 -7 -90 0 -67 3 -83 15 -83 11 0 15 12 15
44 0 58 15 97 40 103 22 6 28 33 7 33 -7 0 -19 -6 -26 -12 -11 -10 -14 -10
-18 0 -5 13 -16 16 -26 5z"/>
<path d="M15963 4086 c-22 -19 -28 -32 -28 -66 0 -34 6 -47 28 -66 62 -53 147
-15 147 66 0 81 -85 119 -147 66z m99 -23 c22 -20 23 -61 1 -85 -19 -22 -66
-24 -82 -4 -16 20 -17 72 -1 91 16 20 59 19 82 -2z"/>
<path d="M16150 4040 c0 -57 4 -74 20 -90 22 -22 69 -26 89 -7 11 10 14 10 18
0 3 -7 11 -13 19 -13 11 0 14 19 14 90 0 73 -3 90 -15 90 -11 0 -15 -12 -15
-47 0 -59 -18 -97 -48 -101 -39 -6 -52 15 -52 84 0 50 -3 64 -15 64 -12 0 -15
-14 -15 -70z"/>
<path d="M16357 4103 c-4 -3 -7 -44 -7 -90 0 -67 3 -83 15 -83 11 0 15 12 15
44 0 58 15 97 40 103 22 6 28 33 7 33 -7 0 -19 -6 -26 -12 -11 -10 -14 -10
-18 0 -5 13 -16 16 -26 5z"/>
<path d="M16487 4092 c-32 -35 -15 -67 47 -87 17 -5 31 -17 31 -25 0 -18 -43
-26 -58 -11 -14 14 -37 14 -37 0 0 -37 85 -52 114 -20 27 29 16 54 -34 78 -25
11 -45 27 -45 35 0 19 54 23 61 4 8 -20 34 -21 34 -2 0 21 -39 46 -71 46 -14
0 -33 -8 -42 -18z"/>
<path d="M16745 4085 c-56 -55 -18 -155 60 -155 51 0 85 36 85 90 0 81 -89
121 -145 65z m97 -22 c22 -20 23 -61 1 -85 -22 -24 -69 -24 -83 1 -34 65 30
132 82 84z"/>
<path d="M17120 4020 c0 -73 3 -90 15 -90 12 0 15 13 15 56 0 71 12 94 50 94
38 0 50 -23 50 -94 0 -43 3 -56 15 -56 12 0 15 14 15 63 0 67 10 87 45 87 35
0 45 -20 45 -87 0 -49 3 -63 15 -63 12 0 15 15 15 74 0 66 -3 77 -22 90 -29
21 -67 20 -90 -1 -17 -15 -19 -15 -36 0 -21 19 -54 22 -83 7 -13 -7 -19 -7
-19 0 0 5 -7 10 -15 10 -12 0 -15 -17 -15 -90z"/>
<path d="M17470 4090 c-57 -57 -24 -160 53 -160 18 0 39 6 46 13 11 10 14 10
18 0 3 -7 11 -13 19 -13 11 0 14 19 14 90 0 71 -3 90 -14 90 -8 0 -16 -6 -19
-12 -4 -10 -7 -10 -18 0 -20 19 -76 15 -99 -8z m110 -42 c13 -25 13 -31 0 -55
-21 -38 -71 -44 -94 -11 -9 12 -16 29 -16 38 0 9 7 26 16 38 23 33 73 27 94
-10z"/>
<path d="M17670 4020 c0 -73 3 -90 15 -90 12 0 15 14 15 63 0 67 10 87 45 87
35 0 45 -20 45 -87 0 -49 3 -63 15 -63 12 0 15 15 15 74 0 66 -3 77 -22 90
-27 19 -69 21 -86 4 -9 -9 -12 -9 -12 0 0 7 -7 12 -15 12 -12 0 -15 -17 -15
-90z"/>
<path d="M17870 4040 c0 -57 4 -74 20 -90 22 -22 60 -26 91 -10 13 7 19 7 19
0 0 -5 7 -10 15 -10 12 0 15 17 15 90 0 73 -3 90 -15 90 -12 0 -15 -13 -15
-56 0 -70 -12 -94 -48 -94 -42 0 -52 17 -52 87 0 49 -3 63 -15 63 -12 0 -15
-14 -15 -70z"/>
<path d="M18096 4089 c-21 -17 -26 -29 -26 -65 0 -73 61 -116 121 -84 13 7 19
7 19 0 0 -5 7 -10 15 -10 12 0 15 17 15 90 0 73 -3 90 -15 90 -8 0 -15 -5 -15
-10 0 -7 -6 -7 -19 0 -31 16 -66 12 -95 -11z m96 -26 c36 -32 12 -103 -35
-103 -49 0 -75 64 -40 102 20 22 51 23 75 1z"/>
<path d="M18440 4101 c0 -6 12 -46 26 -91 32 -102 49 -104 78 -10 l20 65 20
-67 c28 -94 44 -91 79 15 31 97 31 97 12 97 -13 0 -20 -17 -41 -103 -9 -37
-18 -25 -38 46 -10 35 -22 57 -31 57 -8 0 -21 -23 -31 -57 -10 -32 -21 -62
-25 -66 -3 -5 -14 21 -24 57 -11 40 -23 66 -31 66 -8 0 -14 -4 -14 -9z"/>
<path d="M18735 4085 c-56 -55 -18 -155 59 -155 53 0 91 37 91 90 0 34 -6 47
-28 66 -38 32 -90 32 -122 -1z m103 -17 c7 -7 12 -28 12 -48 0 -42 -14 -60
-49 -60 -53 0 -80 62 -44 102 18 20 63 24 81 6z"/>
<path d="M18927 4103 c-4 -3 -7 -44 -7 -90 0 -67 3 -83 15 -83 11 0 15 12 15
44 0 58 15 97 40 103 22 6 28 33 7 33 -7 0 -19 -6 -26 -12 -11 -10 -14 -10
-18 0 -5 13 -16 16 -26 5z"/>
<path d="M19313 4086 c-22 -19 -28 -32 -28 -66 0 -34 6 -47 28 -66 62 -53 147
-15 147 66 0 81 -85 119 -147 66z m99 -23 c22 -20 23 -61 1 -85 -19 -22 -66
-24 -82 -4 -16 20 -17 72 -1 91 16 20 59 19 82 -2z"/>
<path d="M19500 4020 c0 -73 3 -90 15 -90 12 0 15 13 15 59 0 61 15 91 46 91
8 0 14 7 14 15 0 18 -31 20 -48 3 -9 -9 -12 -9 -12 0 0 7 -7 12 -15 12 -12 0
-15 -17 -15 -90z"/>
<path d="M19717 4092 c-32 -35 -15 -67 47 -87 17 -5 31 -17 31 -25 0 -18 -43
-26 -58 -11 -14 14 -37 14 -37 0 0 -37 85 -52 114 -20 27 29 16 54 -34 78 -25
11 -45 27 -45 35 0 19 54 23 61 4 8 -20 34 -21 34 -2 0 21 -39 46 -71 46 -14
0 -33 -8 -42 -18z"/>
<path d="M19990 4020 c0 -72 3 -90 15 -90 11 0 15 16 17 68 3 58 6 68 26 77
24 10 30 35 9 35 -7 0 -18 -5 -25 -12 -9 -9 -12 -9 -12 0 0 7 -7 12 -15 12
-12 0 -15 -17 -15 -90z"/>
<path d="M20103 4094 c-10 -27 5 -125 23 -145 19 -21 73 -26 92 -7 9 9 12 9
12 0 0 -7 7 -12 15 -12 12 0 15 17 15 90 0 73 -3 90 -15 90 -12 0 -15 -14 -15
-64 0 -69 -13 -90 -52 -84 -30 4 -48 42 -48 101 0 46 -15 63 -27 31z"/>
<path d="M20330 4090 c-57 -57 -24 -160 53 -160 18 0 38 5 45 12 17 17 26 3
18 -27 -4 -14 -18 -31 -32 -37 -20 -10 -29 -8 -54 10 -48 36 -70 22 -30 -18
33 -33 95 -30 128 6 20 23 22 35 22 130 0 83 -3 104 -14 104 -8 0 -16 -6 -19
-12 -4 -10 -7 -10 -18 0 -20 19 -76 15 -99 -8z m110 -42 c13 -25 13 -31 0 -55
-21 -38 -71 -44 -94 -11 -9 12 -16 29 -16 38 0 9 7 26 16 38 23 33 73 27 94
-10z"/>
<path d="M20545 4085 c-56 -55 -15 -163 58 -153 18 3 41 9 51 13 17 7 18 5 12
-21 -13 -53 -60 -70 -96 -34 -24 24 -40 26 -40 5 0 -44 106 -63 144 -26 18 19
21 35 24 131 3 93 1 110 -11 110 -9 0 -17 -5 -19 -11 -3 -9 -9 -9 -25 0 -35
18 -72 13 -98 -14z m103 -17 c7 -7 12 -28 12 -48 0 -42 -14 -60 -49 -60 -53 0
-80 62 -44 102 18 20 63 24 81 6z"/>
<path d="M20827 4103 c-4 -3 -7 -44 -7 -90 0 -67 3 -83 15 -83 12 0 15 17 15
90 0 83 -5 101 -23 83z"/>
<path d="M20900 4020 c0 -73 3 -90 15 -90 12 0 15 13 15 56 0 71 12 94 50 94
38 0 50 -23 50 -94 0 -43 3 -56 15 -56 12 0 15 14 15 70 0 57 -4 74 -20 90
-22 22 -60 26 -91 10 -13 -7 -19 -7 -19 0 0 5 -7 10 -15 10 -12 0 -15 -17 -15
-90z"/>
<path d="M21126 4089 c-21 -17 -26 -29 -26 -65 0 -73 61 -116 121 -84 16 9 19
7 19 -14 0 -51 -53 -73 -90 -36 -23 23 -40 26 -40 7 0 -46 102 -65 140 -27 18
18 20 33 20 130 0 91 -3 110 -15 110 -8 0 -15 -5 -15 -10 0 -7 -6 -7 -19 0
-31 16 -66 12 -95 -11z m96 -26 c36 -32 12 -103 -35 -103 -49 0 -75 64 -40
102 20 22 51 23 75 1z"/>
<path d="M11677 3963 c-12 -21 -18 -73 -8 -73 9 0 41 60 41 76 0 7 -29 4 -33
-3z"/>
<path d="M11267 3693 c-4 -3 -7 -12 -7 -20 0 -15 26 -18 34 -4 7 11 -18 33
-27 24z"/>
<path d="M13731 3686 c-12 -14 -5 -26 16 -26 15 0 18 26 4 34 -5 3 -14 0 -20
-8z"/>
<path d="M14693 3689 c-12 -4 -25 -20 -29 -34 -3 -14 -10 -25 -15 -25 -5 0 -9
-7 -9 -15 0 -8 5 -15 10 -15 6 0 10 -32 10 -75 0 -60 3 -75 15 -75 12 0 15 15
15 75 0 68 2 75 20 75 11 0 20 7 20 15 0 9 -9 15 -21 15 -15 0 -19 4 -15 16 3
9 6 18 6 20 0 2 7 4 15 4 16 0 21 16 8 23 -5 3 -18 1 -30 -4z"/>
<path d="M14851 3686 c-12 -14 -5 -26 16 -26 15 0 18 26 4 34 -5 3 -14 0 -20
-8z"/>
<path d="M15521 3690 c-16 -9 -6 -30 15 -30 15 0 20 25 6 34 -4 2 -14 1 -21
-4z"/>
<path d="M16110 3687 c-14 -7 -26 -23 -28 -35 -2 -12 -8 -22 -13 -22 -5 0 -9
-7 -9 -15 0 -8 5 -15 10 -15 6 0 10 -32 10 -75 0 -60 3 -75 15 -75 12 0 15 15
15 75 0 68 2 75 20 75 11 0 20 7 20 15 0 8 -9 15 -20 15 -24 0 -27 25 -4 38
28 16 13 33 -16 19z"/>
<path d="M17287 3693 c-4 -3 -7 -12 -7 -20 0 -15 26 -18 34 -4 7 11 -18 33
-27 24z"/>
<path d="M11460 3570 c0 -100 3 -120 15 -120 12 0 15 14 15 63 0 67 10 87 45
87 35 0 45 -20 45 -87 0 -49 3 -63 15 -63 24 0 21 141 -3 163 -22 20 -73 22
-90 5 -9 -9 -12 -3 -12 30 0 31 -4 42 -15 42 -12 0 -15 -20 -15 -120z"/>
<path d="M11860 3570 c0 -100 3 -120 15 -120 11 0 15 12 15 48 0 58 18 96 48
100 39 6 52 -15 52 -84 0 -50 3 -64 15 -64 12 0 15 14 15 70 0 57 -4 74 -20
90 -21 21 -74 27 -85 10 -13 -22 -25 -8 -25 30 0 29 -4 40 -15 40 -12 0 -15
-20 -15 -120z"/>
<path d="M13300 3570 c0 -100 3 -120 15 -120 13 0 15 20 15 120 0 100 -2 120
-15 120 -12 0 -15 -20 -15 -120z"/>
<path d="M13920 3675 c0 -8 9 -15 20 -15 11 0 20 7 20 15 0 8 -9 15 -20 15
-11 0 -20 -7 -20 -15z"/>
<path d="M11350 3650 c0 -11 -4 -20 -10 -20 -5 0 -10 -7 -10 -15 0 -8 5 -15
10 -15 6 0 10 -28 10 -63 0 -36 5 -68 12 -75 17 -17 58 -15 58 3 0 8 -9 15
-20 15 -18 0 -20 7 -20 60 0 53 2 60 20 60 11 0 20 7 20 15 0 8 -9 15 -20 15
-13 0 -20 7 -20 20 0 11 -7 20 -15 20 -8 0 -15 -9 -15 -20z"/>
<path d="M11750 3650 c0 -11 -4 -20 -10 -20 -5 0 -10 -7 -10 -15 0 -8 5 -15
10 -15 6 0 10 -26 10 -59 0 -41 5 -65 16 -75 20 -21 64 -21 64 -1 0 8 -9 15
-19 15 -23 0 -31 19 -31 76 0 40 2 44 25 44 16 0 25 6 25 15 0 9 -9 15 -25 15
-18 0 -25 5 -25 20 0 11 -7 20 -15 20 -8 0 -15 -9 -15 -20z"/>
<path d="M13810 3650 c0 -11 -4 -20 -10 -20 -5 0 -10 -7 -10 -15 0 -8 5 -15
10 -15 6 0 10 -26 10 -59 0 -41 5 -65 16 -75 20 -21 64 -21 64 -1 0 8 -9 15
-19 15 -23 0 -31 19 -31 76 0 40 2 44 25 44 16 0 25 6 25 15 0 9 -9 15 -25 15
-18 0 -25 5 -25 20 0 11 -7 20 -15 20 -8 0 -15 -9 -15 -20z"/>
<path d="M17060 3650 c0 -11 -7 -20 -15 -20 -8 0 -15 -7 -15 -15 0 -8 7 -15
15 -15 12 0 15 -14 15 -63 0 -36 5 -68 12 -75 17 -17 58 -15 58 3 0 8 -9 15
-20 15 -18 0 -20 7 -20 60 0 53 2 60 20 60 11 0 20 7 20 15 0 8 -9 15 -20 15
-13 0 -20 7 -20 20 0 11 -7 20 -15 20 -8 0 -15 -9 -15 -20z"/>
<path d="M17170 3650 c0 -11 -4 -20 -10 -20 -5 0 -10 -7 -10 -15 0 -8 5 -15
10 -15 6 0 10 -28 10 -65 0 -68 12 -85 59 -85 28 0 27 28 -1 32 -20 3 -23 10
-26 61 -3 55 -2 57 23 57 16 0 25 6 25 15 0 9 -9 15 -25 15 -18 0 -25 5 -25
20 0 11 -7 20 -15 20 -8 0 -15 -9 -15 -20z"/>
<path d="M10980 3623 c0 -4 12 -44 27 -90 35 -106 51 -109 79 -15 l20 67 20
-65 c29 -94 46 -92 78 10 30 94 31 100 12 100 -9 0 -20 -26 -32 -72 l-18 -73
-21 70 c-28 90 -47 97 -69 22 -9 -31 -16 -60 -16 -66 0 -6 -4 -11 -10 -11 -5
0 -10 5 -10 11 0 33 -33 119 -46 119 -8 0 -14 -3 -14 -7z"/>
<path d="M11260 3540 c0 -73 3 -90 15 -90 12 0 15 17 15 90 0 73 -3 90 -15 90
-12 0 -15 -17 -15 -90z"/>
<path d="M12085 3605 c-55 -54 -18 -155 57 -155 38 0 78 24 78 46 0 19 -27 18
-38 -2 -18 -33 -92 -10 -92 28 0 4 32 8 70 8 68 0 70 1 70 25 0 67 -96 100
-145 50z m99 -21 c24 -24 10 -34 -45 -34 -51 0 -59 8 -33 34 20 20 58 20 78 0z"/>
<path d="M12370 3610 c-58 -58 -23 -160 55 -160 26 0 44 8 63 27 24 24 25 28
9 31 -10 2 -24 -4 -31 -13 -19 -26 -67 -16 -86 18 -13 24 -13 30 0 55 19 33
67 43 86 17 7 -9 21 -15 31 -13 16 3 15 7 -9 31 -33 33 -88 37 -118 7z"/>
<path d="M12565 3605 c-56 -55 -18 -155 60 -155 51 0 85 36 85 90 0 81 -89
121 -145 65z m97 -22 c22 -20 23 -61 1 -85 -22 -24 -69 -24 -83 1 -34 65 30
132 82 84z"/>
<path d="M12750 3540 c0 -73 3 -90 15 -90 12 0 15 13 15 56 0 71 12 94 50 94
38 0 50 -23 50 -94 0 -43 3 -56 15 -56 12 0 15 14 15 63 0 67 10 87 45 87 35
0 45 -20 45 -87 0 -49 3 -63 15 -63 12 0 15 15 15 74 0 66 -3 77 -22 90 -29
21 -67 20 -90 -1 -17 -15 -19 -15 -36 0 -21 19 -54 22 -83 7 -13 -7 -19 -7
-19 0 0 5 -7 10 -15 10 -12 0 -15 -17 -15 -90z"/>
<path d="M13080 3500 c0 -109 2 -130 15 -130 11 0 15 12 15 50 0 47 11 63 25
40 10 -16 71 -11 95 8 15 12 24 33 27 64 5 40 2 50 -20 72 -28 28 -65 33 -100
15 -16 -9 -22 -9 -25 0 -2 6 -10 11 -18 11 -11 0 -14 -25 -14 -130z m140 68
c13 -25 13 -31 0 -55 -21 -38 -71 -44 -94 -11 -9 12 -16 29 -16 38 0 9 7 26
16 38 23 33 73 27 94 -10z"/>
<path d="M13396 3609 c-22 -17 -26 -28 -26 -69 0 -41 4 -52 26 -69 32 -25 81
-27 112 -5 23 16 30 44 11 44 -6 0 -22 -9 -36 -19 -31 -25 -83 -9 -83 25 0 11
17 14 70 14 77 0 83 6 55 59 -24 47 -83 56 -129 20z m92 -21 c26 -26 13 -38
-38 -38 -34 0 -50 4 -50 13 0 21 22 37 50 37 14 0 31 -5 38 -12z"/>
<path d="M13560 3622 c0 -4 11 -24 25 -45 l26 -37 -26 -37 c-28 -42 -31 -53
-12 -53 7 0 21 14 31 32 18 30 20 30 33 12 8 -10 18 -25 22 -33 4 -7 15 -11
25 -10 14 4 13 9 -9 41 -31 46 -31 50 0 96 32 47 12 58 -24 13 l-26 -32 -18
31 c-16 27 -47 42 -47 22z"/>
<path d="M13730 3540 c0 -73 3 -90 15 -90 12 0 15 17 15 90 0 73 -3 90 -15 90
-12 0 -15 -17 -15 -90z"/>
<path d="M13927 3623 c-4 -3 -7 -44 -7 -90 0 -67 3 -83 15 -83 12 0 15 17 15
90 0 83 -5 101 -23 83z"/>
<path d="M14020 3610 c-58 -58 -24 -160 54 -160 32 0 86 32 86 51 0 14 -26 11
-40 -6 -24 -29 -90 -13 -90 22 0 9 18 13 65 13 63 0 65 1 65 25 0 62 -95 100
-140 55z m98 -22 c26 -26 13 -38 -38 -38 -34 0 -50 4 -50 13 0 21 22 37 50 37
14 0 31 -5 38 -12z"/>
<path d="M14216 3617 c-12 -9 -17 -23 -14 -42 2 -25 10 -32 48 -46 25 -9 45
-23 45 -30 0 -18 -55 -25 -65 -9 -4 7 -16 10 -26 8 -18 -3 -17 -5 4 -26 28
-28 82 -30 106 -3 27 30 16 54 -36 79 -27 12 -48 29 -48 37 0 21 50 19 66 -2
9 -14 16 -15 24 -6 9 8 7 16 -9 32 -24 24 -68 27 -95 8z"/>
<path d="M14484 3618 c-42 -20 -55 -78 -29 -127 40 -78 165 -40 165 49 0 69
-72 110 -136 78z m96 -50 c13 -25 13 -31 0 -55 -17 -30 -61 -43 -85 -23 -22
19 -27 60 -10 87 23 34 73 29 95 -9z"/>
<path d="M14850 3540 c0 -73 3 -90 15 -90 12 0 15 17 15 90 0 73 -3 90 -15 90
-12 0 -15 -17 -15 -90z"/>
<path d="M14930 3540 c0 -73 3 -90 15 -90 12 0 15 14 15 63 0 67 10 87 45 87
35 0 45 -20 45 -87 0 -49 3 -63 15 -63 12 0 15 15 15 74 0 66 -3 77 -22 90
-27 19 -69 21 -86 4 -9 -9 -12 -9 -12 0 0 7 -7 12 -15 12 -12 0 -15 -17 -15
-90z"/>
<path d="M15110 3628 c0 -2 15 -42 34 -89 46 -115 61 -116 104 -7 36 95 37 98
18 98 -7 0 -20 -19 -29 -42 -9 -24 -21 -56 -28 -73 l-11 -30 -27 70 c-17 44
-33 71 -44 73 -9 2 -17 2 -17 0z"/>
<path d="M15344 3618 c-42 -20 -55 -78 -29 -127 40 -78 165 -40 165 49 0 69
-72 110 -136 78z m96 -50 c13 -25 13 -31 0 -55 -17 -30 -61 -43 -85 -23 -22
19 -27 60 -10 87 23 34 73 29 95 -9z"/>
<path d="M15520 3540 c0 -73 3 -90 15 -90 12 0 15 17 15 90 0 73 -3 90 -15 90
-12 0 -15 -17 -15 -90z"/>
<path d="M15617 3610 c-44 -35 -44 -112 1 -146 28 -22 86 -17 110 9 12 13 22
26 22 30 0 13 -27 7 -40 -8 -15 -18 -61 -20 -78 -3 -7 7 -12 28 -12 48 0 20 5
41 12 48 17 17 63 15 78 -3 14 -17 40 -20 40 -6 0 18 -53 51 -80 51 -15 0 -39
-9 -53 -20z"/>
<path d="M15805 3605 c-55 -54 -18 -155 57 -155 38 0 78 24 78 46 0 19 -27 18
-38 -2 -18 -33 -92 -10 -92 28 0 4 32 8 70 8 68 0 70 1 70 25 0 67 -96 100
-145 50z m99 -21 c24 -24 10 -34 -45 -34 -51 0 -59 8 -33 34 20 20 58 20 78 0z"/>
<path d="M16195 3605 c-56 -55 -18 -155 59 -155 53 0 91 37 91 90 0 34 -6 47
-28 66 -38 32 -90 32 -122 -1z m103 -17 c7 -7 12 -28 12 -48 0 -42 -14 -60
-49 -60 -53 0 -80 62 -44 102 18 20 63 24 81 6z"/>
<path d="M16387 3623 c-4 -3 -7 -44 -7 -90 0 -67 3 -83 15 -83 11 0 15 12 15
44 0 58 15 97 40 103 22 6 28 33 7 33 -7 0 -19 -6 -26 -12 -11 -10 -14 -10
-18 0 -5 13 -16 16 -26 5z"/>
<path d="M16500 3540 c0 -73 3 -90 15 -90 12 0 15 13 15 56 0 71 12 94 50 94
38 0 50 -23 50 -94 0 -43 3 -56 15 -56 12 0 15 14 15 63 0 67 10 87 45 87 35
0 45 -20 45 -87 0 -49 3 -63 15 -63 12 0 15 15 15 74 0 66 -3 77 -22 90 -29
21 -67 20 -90 -1 -17 -15 -19 -15 -36 0 -21 19 -54 22 -83 7 -13 -7 -19 -7
-19 0 0 5 -7 10 -15 10 -12 0 -15 -17 -15 -90z"/>
<path d="M16850 3610 c-57 -57 -24 -160 53 -160 18 0 39 6 46 13 11 10 14 10
18 0 3 -7 11 -13 19 -13 11 0 14 19 14 90 0 71 -3 90 -14 90 -8 0 -16 -6 -19
-12 -4 -10 -7 -10 -18 0 -20 19 -76 15 -99 -8z m110 -42 c13 -25 13 -31 0 -55
-21 -38 -71 -44 -94 -11 -9 12 -16 29 -16 38 0 9 7 26 16 38 23 33 73 27 94
-10z"/>
<path d="M17280 3540 c0 -73 3 -90 15 -90 12 0 15 17 15 90 0 73 -3 90 -15 90
-12 0 -15 -17 -15 -90z"/>
<path d="M17360 3540 c0 -73 3 -90 15 -90 12 0 15 13 15 56 0 71 12 94 50 94
38 0 50 -23 50 -94 0 -45 3 -56 16 -56 24 0 16 130 -10 159 -21 23 -56 27 -87
11 -13 -7 -19 -7 -19 0 0 5 -7 10 -15 10 -12 0 -15 -17 -15 -90z"/>
<path d="M17583 3606 c-22 -19 -28 -32 -28 -64 0 -72 65 -114 126 -82 16 9 19
7 19 -13 0 -26 -28 -57 -52 -57 -8 0 -27 9 -41 20 -35 28 -51 26 -36 -2 17
-32 28 -38 77 -38 71 0 82 19 82 150 0 91 -3 110 -15 110 -8 0 -15 -5 -15 -10
0 -7 -6 -7 -19 0 -32 17 -68 12 -98 -14z m99 -23 c39 -35 11 -103 -42 -103
-34 0 -53 22 -53 60 0 16 5 36 13 44 16 21 59 20 82 -1z"/>
<path d="M17774 3479 c-10 -17 13 -36 27 -22 12 12 4 33 -11 33 -5 0 -12 -5
-16 -11z"/>
</g>
</svg>
